<?xml version="1.0" encoding="UTF-8" standalone="no"?>
<!DOCTYPE svg PUBLIC "-//W3C//DTD SVG 1.1//EN" "http://www.w3.org/Graphics/SVG/1.1/DTD/svg11.dtd">
<svg xmlns="http://www.w3.org/2000/svg" version="1.1" viewBox="0.00 0.00 1001.00 992.00">
<g stroke-width="2.00" fill="none" stroke-linecap="butt">
<path stroke="#545965" vector-effect="non-scaling-stroke" d="
  M 898.51 992.00
  Q 911.91 971.39 935.65 964.98
  A 1.58 1.56 7.3 0 0 936.58 964.27
  Q 937.29 963.06 936.78 961.98
  A 1.54 1.54 0.0 0 0 935.81 961.16
  Q 901.08 951.05 890.89 916.33
  A 1.80 1.76 -80.5 0 0 890.25 915.41
  Q 889.00 914.47 887.69 915.45
  A 1.69 1.60 81.3 0 0 887.10 916.30
  Q 876.98 950.96 842.31 961.14
  A 1.80 1.79 8.0 0 0 841.31 961.89
  Q 840.53 963.08 841.52 964.39
  A 1.78 1.78 0.0 0 0 842.45 965.02
  Q 866.10 971.46 879.55 992.00"
/>
<path stroke="#538c5a" vector-effect="non-scaling-stroke" d="
  M 893.90 765.24
  Q 905.80 749.16 916.44 732.22"
/>
<path stroke="#132425" vector-effect="non-scaling-stroke" d="
  M 916.44 732.22
  C 922.16 730.28 923.55 728.14 926.79 722.51
  Q 929.69 717.47 932.80 711.28
  Q 933.76 709.37 938.24 703.59
  C 944.06 696.08 945.35 690.11 947.99 680.26
  A 0.02 0.02 0.0 0 1 948.03 680.26
  L 950.01 689.92
  A 0.80 0.80 0.0 0 0 951.57 689.92
  C 953.20 682.27 952.15 674.99 953.89 669.83
  Q 954.11 669.18 957.95 660.54
  Q 961.37 652.86 963.20 644.18
  A 0.27 0.27 0.0 0 1 963.73 644.18
  L 966.49 656.98
  A 0.63 0.63 0.0 0 0 967.73 656.87
  Q 968.19 644.28 968.18 638.82
  Q 968.17 629.44 969.25 624.85
  C 971.06 617.20 975.86 609.04 980.34 602.51
  A 0.61 0.61 0.0 0 1 981.44 602.77
  L 982.62 610.71
  A 0.75 0.75 0.0 0 0 984.10 610.67
  C 984.57 605.91 984.63 599.65 984.81 589.63
  Q 984.95 581.89 984.67 571.39
  Q 984.26 556.14 984.66 536.20
  Q 984.79 529.37 985.90 520.13
  Q 988.39 499.45 987.32 481.71
  Q 987.11 478.17 985.67 466.74
  C 984.94 460.92 985.26 455.18 984.81 449.95
  Q 984.37 444.81 984.73 437.35
  C 985.20 427.74 984.37 415.29 984.78 404.54
  C 985.09 396.22 985.66 389.73 983.81 382.90
  A 0.47 0.47 0.0 0 0 982.89 382.98
  L 981.55 397.30
  A 0.08 0.08 0.0 0 1 981.40 397.32
  Q 980.13 392.61 978.13 384.04
  C 976.94 378.93 974.78 375.86 971.63 372.19
  C 967.35 367.17 965.60 359.06 964.00 352.53
  C 961.50 342.31 956.29 332.87 954.26 323.21
  C 952.13 313.08 954.59 301.35 950.93 291.50
  A 0.13 0.13 0.0 0 0 950.68 291.51
  L 949.38 296.35
  A 0.97 0.97 0.0 0 1 947.82 296.84
  Q 946.97 296.13 946.66 295.59
  Q 938.58 281.41 930.21 270.45
  C 927.18 266.48 924.34 261.70 923.09 257.73
  Q 919.68 246.93 916.69 242.83
  Q 910.91 234.91 904.04 224.99
  C 901.24 220.95 898.55 218.04 895.25 214.14
  C 892.51 210.90 890.64 207.61 888.22 203.33
  C 887.07 201.31 884.83 198.50 883.40 197.60
  C 876.29 193.12 870.39 188.82 864.82 183.31
  C 860.05 178.60 857.44 172.34 856.36 165.74"
/>
<path stroke="#11202a" vector-effect="non-scaling-stroke" d="
  M 856.36 165.74
  Q 853.03 163.81 849.25 163.52"
/>
<path stroke="#132425" vector-effect="non-scaling-stroke" d="
  M 849.25 163.52
  Q 838.36 157.01 832.54 151.91
  C 824.92 145.24 816.36 137.31 808.47 131.60
  Q 801.50 126.56 768.99 102.36
  A 0.12 0.12 0.0 0 1 769.07 102.14
  L 774.98 102.33
  A 0.83 0.83 0.0 0 0 775.37 100.75
  Q 772.59 99.40 769.10 99.13
  Q 765.61 98.86 755.78 98.55
  A 2.66 2.59 62.2 0 1 754.45 98.12
  C 743.05 90.50 726.53 77.85 710.85 68.71"
/>
<path stroke="#11202a" vector-effect="non-scaling-stroke" d="
  M 710.85 68.71
  Q 703.40 66.64 695.48 66.98"
/>
<path stroke="#132425" vector-effect="non-scaling-stroke" d="
  M 695.48 66.98
  C 687.42 66.75 682.33 65.28 674.82 61.98
  C 670.81 60.22 667.70 59.53 663.67 58.22
  A 1.38 1.38 0.0 0 1 662.90 56.21
  L 663.60 55.00
  A 0.77 0.76 -50.7 0 0 663.52 54.11
  Q 662.39 52.79 660.61 52.62
  Q 648.58 51.49 638.34 47.87
  Q 630.09 44.96 627.05 44.36
  Q 616.79 42.33 615.41 42.31
  C 607.41 42.22 601.96 42.80 596.58 39.83
  A 0.96 0.96 0.0 0 1 596.35 38.32
  C 597.55 37.09 601.64 37.16 605.22 36.94
  A 0.34 0.33 -8.2 0 0 605.53 36.54
  L 605.47 36.27
  A 0.76 0.75 84.5 0 0 604.76 35.68
  C 588.30 35.11 572.15 35.49 555.12 35.21
  Q 536.05 34.91 512.20 35.68
  Q 502.22 36.01 488.78 35.57
  Q 475.15 35.12 458.22 35.54
  A 0.87 0.87 0.0 0 0 457.37 36.38
  L 457.37 36.42
  A 0.80 0.80 0.0 0 0 458.15 37.20
  L 490.49 38.26
  A 0.32 0.32 0.0 0 1 490.73 38.78
  Q 488.25 41.81 483.24 42.24
  Q 474.63 42.96 466.82 42.56
  Q 463.55 42.39 455.69 43.80
  Q 443.09 46.05 435.50 48.95
  C 428.73 51.54 423.04 52.77 416.07 54.53
  C 411.05 55.80 407.49 57.87 402.55 58.54
  Q 398.21 59.13 394.29 59.94
  Q 391.16 60.59 382.58 64.87
  C 380.83 65.74 378.69 66.38 377.31 66.59
  Q 370.35 67.65 364.92 69.40
  Q 361.11 70.63 351.07 75.87
  C 347.03 77.98 342.64 82.43 338.83 83.52
  Q 328.57 86.46 319.81 91.54
  C 316.52 93.44 313.43 96.43 309.97 98.26
  A 1.80 1.74 27.5 0 1 309.26 98.47
  L 297.15 99.58
  A 0.58 0.58 0.0 0 0 296.62 100.16
  Q 296.61 104.71 293.71 106.52
  C 288.82 109.59 284.30 111.86 280.36 116.37
  Q 275.23 122.24 270.43 126.08
  C 264.21 131.05 258.23 132.39 250.56 131.42
  A 1.33 1.32 1.6 0 0 249.07 132.82
  L 249.25 135.51
  A 0.85 0.83 65.1 0 1 249.02 136.16
  Q 243.07 142.42 236.44 151.85
  C 234.09 155.18 230.81 158.51 227.85 160.86
  C 225.26 162.92 222.14 163.25 219.28 164.72
  A 7.32 7.28 -81.4 0 0 217.42 166.10
  C 213.97 169.66 209.96 173.22 207.10 177.46
  C 201.57 185.64 196.67 191.78 187.53 196.45
  Q 185.62 197.42 184.78 199.04
  Q 176.65 214.71 168.85 224.14
  Q 157.30 238.08 153.48 244.17
  Q 151.35 247.56 150.82 248.70
  C 149.29 252.01 147.79 255.53 144.90 256.95
  Q 142.18 258.29 141.36 258.80
  A 5.37 5.36 80.6 0 0 138.95 262.17
  C 138.02 266.28 138.03 270.42 134.93 274.15
  C 130.77 279.15 126.07 284.02 124.86 290.22
  Q 123.02 299.65 120.25 305.89
  C 118.71 309.40 115.29 313.64 114.29 317.44
  Q 113.42 320.71 112.53 323.96
  A 0.46 0.46 0.0 0 1 111.86 324.24
  L 107.01 321.42
  A 0.40 0.39 -73.7 0 0 106.42 321.75
  Q 106.28 324.63 106.10 333.57
  Q 105.97 339.76 105.02 341.84
  Q 100.56 351.62 98.04 362.32
  C 97.42 364.92 96.23 368.63 93.19 369.27
  A 0.39 0.39 0.0 0 1 92.72 368.91
  L 91.87 356.92
  A 0.64 0.64 0.0 0 0 91.05 356.34
  L 91.02 356.35
  A 0.99 0.98 -6.2 0 0 90.27 357.28
  Q 89.83 377.38 88.36 394.76
  Q 87.97 399.43 85.59 412.38
  Q 85.22 414.38 85.06 416.51
  Q 84.98 417.64 84.86 420.70
  Q 84.68 425.38 84.52 429.20
  C 84.21 436.58 82.37 443.45 81.91 450.35
  Q 81.80 452.04 80.10 459.16
  C 78.42 466.20 78.95 473.19 79.71 480.39
  A 25.12 24.74 -45.8 0 1 79.74 485.22
  Q 78.92 494.05 78.99 495.47
  Q 79.92 514.36 79.86 524.56
  C 79.82 531.72 81.28 537.08 81.88 544.14
  Q 82.29 548.93 83.78 558.74
  Q 85.39 569.35 87.33 581.35
  C 88.53 588.82 88.41 595.95 89.14 603.16
  C 89.86 610.20 89.21 619.22 89.93 626.79
  A 0.82 0.82 0.0 0 0 91.57 626.79
  L 92.71 614.60
  A 0.73 0.73 0.0 0 1 94.14 614.44
  Q 94.20 614.61 94.25 614.86
  C 97.25 629.76 102.73 642.23 110.62 660.45
  C 113.18 666.35 114.69 671.33 116.95 675.60
  Q 119.68 680.74 120.32 683.36
  C 122.03 690.38 121.51 696.41 121.29 705.21
  A 1.96 1.95 -79.4 0 0 122.57 707.09
  L 122.63 707.11
  A 1.09 1.09 0.0 0 0 124.09 706.12
  Q 124.13 704.05 124.75 702.58
  A 0.71 0.71 0.0 0 1 125.98 702.44
  C 128.84 706.42 133.63 710.93 136.42 715.82
  Q 139.39 721.01 139.56 721.46
  Q 141.78 727.40 143.85 729.97
  Q 148.82 736.18 153.16 743.09
  A 1.75 1.69 32.6 0 1 153.41 744.14
  Q 152.95 750.26 154.18 754.50
  A 1.08 1.08 0.0 0 0 156.30 754.24
  L 156.35 752.80
  A 0.18 0.18 0.0 0 1 156.69 752.74
  C 158.29 756.41 159.90 759.71 162.12 762.60
  Q 171.08 774.28 182.27 783.39
  A 11.88 11.86 6.0 0 1 185.31 787.14
  C 188.92 794.15 191.59 800.70 197.99 804.53
  C 203.14 807.60 207.24 810.71 211.73 815.67
  Q 214.85 819.13 224.61 829.15
  Q 226.85 831.46 233.00 836.08
  Q 241.93 842.79 249.32 849.94
  Q 251.28 851.83 256.01 858.15
  C 257.48 860.11 259.83 861.95 261.79 862.55
  C 267.58 864.33 272.91 867.15 279.04 871.12
  Q 285.71 875.45 290.35 877.51
  C 294.70 879.44 298.84 882.96 301.45 885.93
  Q 307.18 892.46 311.99 896.90
  C 313.08 897.91 314.99 898.99 316.17 899.05
  Q 324.64 899.41 327.28 900.47
  Q 331.19 902.05 346.47 908.38
  C 354.60 911.75 361.85 916.48 369.97 920.05
  C 374.43 922.01 379.76 923.77 383.55 926.97
  A 0.19 0.19 0.0 0 1 383.45 927.30
  L 374.43 928.64
  A 0.43 0.43 0.0 0 0 374.34 929.47
  Q 378.76 931.21 383.63 931.20
  Q 394.38 931.20 403.28 932.33
  C 410.16 933.20 419.29 934.14 426.00 936.41
  C 433.22 938.84 441.25 938.40 447.63 941.76
  A 0.48 0.48 0.0 0 1 447.44 942.67
  L 425.93 944.14
  A 0.66 0.66 0.0 0 0 425.72 945.41
  Q 428.61 946.64 432.59 946.77
  Q 438.97 946.96 456.54 945.05
  Q 458.68 944.81 461.83 945.27
  Q 477.05 947.46 485.23 948.89
  C 494.97 950.60 504.36 949.86 514.29 950.71
  Q 521.42 951.32 537.39 951.63
  Q 546.88 951.82 558.10 950.80
  C 570.00 949.73 588.53 949.02 602.55 946.16
  C 613.91 943.84 628.39 938.55 641.52 936.65
  C 649.54 935.49 658.12 931.65 666.15 931.52
  Q 675.08 931.38 690.88 931.33
  Q 694.26 931.32 698.36 929.27
  A 1.55 1.50 -1.6 0 0 699.05 928.56
  Q 703.11 919.94 710.19 914.73
  C 713.36 912.39 715.78 910.14 718.56 909.18
  Q 728.12 905.86 739.92 900.94
  C 745.59 898.58 748.60 898.76 755.62 899.16
  Q 757.24 899.25 760.91 897.95
  A 1.20 1.18 -87.4 0 0 761.60 897.31
  C 764.26 891.54 767.76 884.76 773.04 881.55
  C 776.61 879.38 779.87 878.09 783.86 874.83
  Q 793.31 867.09 795.10 866.09
  Q 804.01 861.09 810.94 856.97
  Q 814.79 854.68 820.37 848.71
  A 26.55 26.20 3.5 0 1 824.32 845.26
  L 828.22 842.49
  A 6.19 5.97 1.0 0 0 829.39 841.40
  C 831.15 839.29 834.59 835.34 837.52 834.17
  C 847.65 830.16 856.39 828.42 860.16 818.47
  C 861.71 814.39 863.61 808.52 866.30 806.69
  C 868.67 805.06 871.34 803.75 871.68 801.61
  Q 872.02 799.52 873.78 798.19
  C 879.74 793.71 881.75 790.60 884.45 784.69
  C 886.16 780.94 888.72 778.51 892.54 774.32
  Q 896.24 770.26 893.90 765.24"
/>
<path stroke="#09231d" vector-effect="non-scaling-stroke" d="
  M 695.48 66.98
  L 707.32 71.25
  A 1.42 1.41 -58.5 0 0 708.84 70.88
  L 710.85 68.71"
/>
<path stroke="#09231d" vector-effect="non-scaling-stroke" d="
  M 849.25 163.52
  C 850.75 165.51 854.25 169.34 856.36 165.74"
/>
<path stroke="#4b8f4e" vector-effect="non-scaling-stroke" d="
  M 916.44 732.22
  Q 977.55 634.52 984.14 519.57
  C 984.99 504.71 984.92 488.54 983.97 474.26
  C 982.17 447.36 978.56 419.78 972.59 393.10
  Q 970.73 384.78 967.48 374.03
  C 961.85 355.40 956.11 338.12 948.39 320.34
  Q 940.81 302.87 936.56 294.46
  C 932.96 287.35 925.89 274.22 920.70 265.51
  Q 889.92 213.84 846.41 171.58
  Q 819.96 145.90 792.03 125.97
  Q 744.01 91.72 688.41 70.86
  Q 660.93 60.54 636.31 55.21
  C 626.50 53.09 616.89 50.72 608.01 49.33
  Q 582.93 45.39 562.49 43.98
  C 525.42 41.42 486.94 43.77 449.76 51.40
  Q 433.36 54.76 426.96 56.23
  Q 404.68 61.35 383.09 69.38
  Q 352.64 80.71 320.77 97.57
  Q 292.65 112.45 259.96 137.01
  C 244.81 148.40 229.66 162.28 216.72 174.98
  Q 185.25 205.88 160.42 242.65
  Q 136.48 278.11 118.02 320.98
  C 100.06 362.68 89.16 407.03 84.30 452.47
  C 81.83 475.46 81.49 498.69 82.65 520.76
  Q 84.13 548.75 89.35 575.38
  Q 103.22 646.00 136.59 707.51
  Q 146.93 726.59 152.14 734.51
  Q 162.62 750.46 170.12 760.98
  C 187.02 784.70 207.23 806.53 228.44 826.09
  Q 235.46 832.56 241.30 837.74
  Q 257.60 852.16 280.79 867.69
  Q 297.56 878.93 309.82 885.92
  C 340.80 903.60 375.27 918.50 410.78 928.56
  Q 424.21 932.37 430.38 933.84
  C 504.35 951.54 581.11 950.46 654.16 929.65
  Q 677.12 923.11 694.23 916.44
  Q 724.65 904.59 754.10 888.07
  C 761.09 884.16 767.77 879.82 774.12 875.94
  Q 781.66 871.33 788.79 866.35
  Q 819.78 844.72 847.16 818.18
  C 854.76 810.81 862.11 802.39 868.62 795.56
  C 877.08 786.68 885.63 775.47 893.90 765.24"
/>
<path stroke="#b4eaac" vector-effect="non-scaling-stroke" d="
  M 169.24 326.13
  Q 168.78 326.19 168.25 326.83
  A 1.83 1.76 -21.2 0 0 167.85 327.69
  L 167.08 332.33
  A 2.32 2.18 63.8 0 1 166.90 332.92
  Q 162.83 341.46 160.78 348.75
  Q 160.45 349.93 159.72 351.00
  A 1.64 1.32 75.7 0 0 159.56 351.35
  L 157.69 357.56"
/>
<path stroke="#4f8d60" vector-effect="non-scaling-stroke" d="
  M 157.69 357.56
  L 148.38 379.91"
/>
<path stroke="#488a53" vector-effect="non-scaling-stroke" d="
  M 148.38 379.91
  L 143.41 392.85
  A 0.66 0.65 -79.5 0 0 144.02 393.74
  Q 260.24 393.86 312.05 393.64
  Q 314.60 393.63 314.60 396.26
  Q 314.72 483.54 314.52 552.50
  C 314.50 562.58 315.21 571.21 318.50 580.32"
/>
<path stroke="#4f8d60" vector-effect="non-scaling-stroke" d="
  M 318.50 580.32
  Q 323.50 595.19 331.19 606.06
  Q 348.00 629.85 376.25 640.49"
/>
<path stroke="#488a53" vector-effect="non-scaling-stroke" d="
  M 376.25 640.49
  Q 391.28 646.58 403.01 647.26
  C 420.55 648.28 439.31 647.95 457.81 647.90
  A 1.80 1.79 -76.3 0 0 459.38 646.94
  C 463.78 638.59 468.50 631.91 473.26 623.16
  Q 477.99 614.44 479.26 611.97
  Q 479.47 611.54 479.29 610.78"
/>
<path stroke="#b4eaac" vector-effect="non-scaling-stroke" d="
  M 479.29 610.78
  C 481.27 609.75 482.06 608.00 483.43 606.28
  A 9.92 9.71 -15.0 0 0 484.79 603.98
  Q 486.65 599.55 488.36 596.71
  Q 490.43 593.28 492.38 589.69
  Q 495.09 584.69 498.34 579.86"
/>
<path stroke="#4f8d60" vector-effect="non-scaling-stroke" d="
  M 498.34 579.86
  L 506.29 567.10"
/>
<path stroke="#538c5a" vector-effect="non-scaling-stroke" d="
  M 506.29 567.10
  L 519.17 545.02
  A 0.74 0.73 18.6 0 0 518.62 543.92
  Q 515.94 543.59 513.75 543.57
  Q 500.70 543.44 431.77 543.64
  Q 429.80 543.64 429.80 541.26
  Q 429.79 460.17 429.69 394.95
  A 1.13 1.12 -90.0 0 1 430.81 393.82
  L 492.89 393.82
  A 2.22 2.21 74.2 0 1 494.78 394.88
  L 513.93 426.03"
/>
<path stroke="#4f8d60" vector-effect="non-scaling-stroke" d="
  M 513.93 426.03
  L 561.22 504.24"
/>
<path stroke="#488a53" vector-effect="non-scaling-stroke" d="
  M 561.22 504.24
  L 566.88 513.50"
/>
<path stroke="#4f8d60" vector-effect="non-scaling-stroke" d="
  M 566.88 513.50
  Q 568.16 515.26 568.82 518.26"
/>
<path stroke="#488a53" vector-effect="non-scaling-stroke" d="
  M 568.82 518.26
  L 564.39 526.72"
/>
<path stroke="#4f8d60" vector-effect="non-scaling-stroke" d="
  M 564.39 526.72
  L 477.37 675.07"
/>
<path stroke="#488a53" vector-effect="non-scaling-stroke" d="
  M 477.37 675.07
  L 392.43 820.32
  A 0.96 0.95 -55.8 0 0 392.66 821.55
  Q 394.25 822.80 395.58 823.55
  Q 408.09 830.51 424.04 838.45
  A 0.78 0.77 -61.3 0 0 425.05 838.15
  L 497.08 715.01"
/>
<path stroke="#4f8d60" vector-effect="non-scaling-stroke" d="
  M 497.08 715.01
  Q 497.58 714.59 497.22 714.96"
/>
<path stroke="#b4eaac" vector-effect="non-scaling-stroke" d="
  M 497.22 714.96
  L 504.07 713.96
  A 6.31 5.92 39.7 0 1 505.06 713.90
  L 540.51 714.97"
/>
<path stroke="#488a53" vector-effect="non-scaling-stroke" d="
  M 540.51 714.97
  L 866.83 714.87
  A 1.58 1.57 -74.4 0 0 868.18 714.10
  L 889.52 677.72"
/>
<path stroke="#b4eaac" vector-effect="non-scaling-stroke" d="
  M 889.52 677.72
  Q 892.46 674.61 893.77 672.23
  Q 900.21 660.53 907.41 648.03
  A 0.93 0.92 -67.5 0 0 906.85 646.67
  L 905.04 646.19"
/>
<path stroke="#4f8d60" vector-effect="non-scaling-stroke" d="
  M 905.04 646.19
  Q 906.99 646.42 908.72 646.01
  A 1.59 1.58 6.4 0 0 909.79 645.16
  L 927.00 609.70
  A 0.48 0.48 0.0 0 0 926.62 609.01
  Q 925.05 608.86 920.50 608.82
  Q 885.76 608.50 791.35 608.58
  C 786.40 608.59 776.58 608.12 769.93 608.49
  C 764.16 608.82 758.64 608.31 752.02 608.49
  Q 741.37 608.78 730.49 608.60
  A 0.50 0.50 0.0 0 1 730.07 607.85
  L 745.50 581.31"
/>
<path stroke="#488a53" vector-effect="non-scaling-stroke" d="
  M 745.50 581.31
  L 765.34 546.98"
/>
<path stroke="#4f8d60" vector-effect="non-scaling-stroke" d="
  M 765.34 546.98
  L 785.69 512.17"
/>
<path stroke="#4b8f4e" vector-effect="non-scaling-stroke" d="
  M 785.69 512.17
  L 841.33 415.95
  A 0.72 0.71 25.5 0 0 840.96 414.92
  Q 840.06 414.58 838.75 414.53
  Q 827.46 414.07 804.00 414.20
  C 760.59 414.46 719.84 414.00 676.75 414.43
  Q 675.85 414.44 675.89 413.49"
/>
<path stroke="#4f8d60" vector-effect="non-scaling-stroke" d="
  M 675.89 413.49
  C 679.76 405.44 685.36 396.66 688.99 390.46
  C 701.46 369.12 714.23 347.96 726.34 326.41"
/>
<path stroke="#488a53" vector-effect="non-scaling-stroke" d="
  M 726.34 326.41
  L 746.97 291.37
  A 0.49 0.48 15.2 0 0 746.55 290.64
  Q 708.99 290.67 705.99 290.65
  Q 704.50 290.64 703.20 292.69
  Q 698.76 299.69 692.05 311.32
  Q 687.18 319.78 675.77 338.72
  C 671.77 345.36 668.03 352.52 664.20 358.29
  C 660.88 363.28 658.36 368.49 654.85 374.35
  Q 645.35 390.26 635.82 406.61"
/>
<path stroke="#4f8d60" vector-effect="non-scaling-stroke" d="
  M 635.82 406.61
  Q 634.63 409.16 631.69 404.30
  Q 595.58 344.53 595.55 344.49
  Q 590.97 336.43 563.10 290.86
  A 1.55 1.50 -5.5 0 0 562.31 290.23
  Q 560.88 289.73 559.25 289.73
  Q 470.82 289.73 431.11 289.88
  A 1.25 1.25 0.0 0 1 429.86 288.63
  L 429.86 201.67
  A 0.47 0.47 0.0 0 0 429.39 201.20
  L 315.87 201.20
  A 1.16 1.16 0.0 0 0 314.71 202.36
  L 314.71 288.15
  A 1.59 1.59 0.0 0 1 313.12 289.74
  L 184.83 289.74
  A 2.48 2.46 -79.4 0 0 182.53 291.33
  L 169.24 326.13"
/>
<path stroke="#0d2130" vector-effect="non-scaling-stroke" d="
  M 635.82 406.61
  Q 636.67 410.74 635.09 414.60
  A 0.31 0.30 75.4 0 0 635.61 414.91
  Q 638.14 411.63 638.90 410.18
  C 641.39 405.38 643.45 399.65 646.59 395.89
  C 648.87 393.15 650.73 389.73 653.54 386.74
  Q 657.92 382.09 660.61 378.68
  A 0.44 0.44 0.0 0 1 661.39 378.86
  L 663.02 386.44
  A 0.60 0.60 0.0 0 0 664.20 386.42
  Q 665.04 381.85 665.06 372.41
  C 665.08 366.18 666.05 359.64 671.57 356.10
  C 674.45 354.25 677.09 354.55 680.00 356.18
  A 0.80 0.80 0.0 0 0 681.19 355.42
  C 680.51 346.95 679.25 340.05 682.99 333.26
  Q 686.87 326.22 692.43 319.32
  A 0.92 0.92 0.0 0 1 694.07 319.84
  L 695.03 333.88
  A 0.26 0.26 0.0 0 0 695.31 334.12
  L 695.65 334.10
  A 0.50 0.50 0.0 0 0 696.12 333.62
  Q 696.33 328.86 696.59 320.31
  C 696.92 309.54 703.67 309.23 712.22 308.42
  A 0.92 0.91 88.2 0 0 713.04 307.54
  L 713.47 294.20
  A 0.68 0.68 0.0 0 1 714.14 293.54
  Q 718.18 293.42 724.36 293.92
  Q 729.48 294.32 729.54 298.69
  Q 729.69 310.41 726.56 322.35
  Q 726.21 323.70 726.34 326.41"
/>
<path stroke="#10252b" vector-effect="non-scaling-stroke" d="
  M 675.89 413.49
  L 674.72 415.64
  A 0.69 0.68 19.4 0 0 675.20 416.64
  Q 679.04 417.36 679.36 417.38
  C 689.59 417.81 699.30 418.73 709.81 418.85
  C 731.75 419.10 751.66 418.12 771.92 418.62
  Q 777.38 418.75 813.96 419.02
  Q 819.14 419.06 824.52 418.69
  A 0.99 0.99 0.0 0 1 825.56 419.83
  Q 825.12 422.60 824.94 426.40
  C 824.70 431.37 825.05 436.64 822.89 441.47
  Q 820.61 446.57 816.93 451.38
  C 815.78 452.88 814.31 453.19 812.73 452.82
  A 2.06 2.06 0.0 0 0 810.24 454.35
  Q 808.72 460.81 807.36 464.36
  C 806.04 467.85 803.02 471.45 801.45 474.09
  Q 801.40 474.18 801.35 474.27
  L 795.94 485.76"
/>
<path stroke="#0d2130" vector-effect="non-scaling-stroke" d="
  M 795.94 485.76
  L 795.94 468.19
  A 0.55 0.55 0.0 0 0 794.88 467.97
  C 792.72 473.02 792.81 479.09 792.70 484.52"
/>
<path stroke="#10252b" vector-effect="non-scaling-stroke" d="
  M 792.70 484.52
  Q 791.68 489.35 790.54 490.87
  C 788.57 493.51 786.19 496.26 785.05 499.13
  Q 782.39 505.87 785.69 512.17"
/>
<path stroke="#0d2130" vector-effect="non-scaling-stroke" d="
  M 765.34 546.98
  C 763.30 542.35 763.74 536.96 764.83 532.29
  A 1.07 1.07 0.0 0 0 763.56 531.00
  L 762.76 531.17
  A 2.17 2.15 82.9 0 0 761.06 533.37
  C 761.28 538.77 761.61 546.59 758.45 550.49
  Q 754.66 555.15 751.70 558.48
  A 2.73 2.72 31.9 0 1 748.63 559.19
  L 747.85 558.87
  A 1.70 1.70 0.0 0 0 745.52 560.18
  Q 744.61 566.06 744.02 571.62
  Q 743.60 575.56 741.77 577.53
  Q 739.00 580.50 737.50 584.26
  A 0.64 0.63 87.1 0 0 738.38 585.06
  L 745.50 581.31"
/>
<path stroke="#798189" vector-effect="non-scaling-stroke" d="
  M 905.04 646.19
  L 665.74 646.00
  A 0.63 0.63 0.0 0 1 665.20 645.05
  L 778.06 450.96
  A 0.75 0.75 0.0 0 0 777.41 449.84
  L 654.12 449.84
  A 0.62 0.60 -74.0 0 0 653.60 450.14
  L 497.22 714.96"
/>
<path stroke="#0d2130" vector-effect="non-scaling-stroke" d="
  M 497.08 715.01
  C 491.73 715.91 490.17 718.76 486.47 723.70
  Q 479.95 732.41 475.88 742.12
  A 14.63 14.45 75.4 0 1 474.00 745.37
  C 468.87 752.11 465.72 755.54 463.90 760.63
  C 460.75 769.44 457.57 776.07 451.79 783.49
  Q 446.35 790.48 443.23 799.72
  A 17.64 17.51 73.3 0 1 440.54 804.77
  Q 435.03 811.97 430.26 819.56
  Q 429.22 821.23 427.98 820.64
  A 1.72 1.59 -68.5 0 0 425.75 821.72
  Q 423.92 827.26 421.90 831.07
  A 1.97 1.97 0.0 0 1 419.41 831.97
  L 409.17 827.76
  A 0.90 0.89 11.3 0 1 408.61 826.93
  L 408.78 803.52
  A 0.22 0.17 64.5 0 1 408.80 803.43
  L 418.46 782.73
  A 2.88 2.50 80.8 0 1 418.80 782.18
  Q 427.55 771.06 434.80 758.00
  Q 436.26 755.36 437.68 750.69
  C 439.70 744.01 444.62 739.39 447.57 735.34
  Q 448.45 734.14 451.56 727.28
  Q 451.88 726.58 453.15 725.16
  A 0.20 0.20 0.0 0 1 453.50 725.28
  L 454.47 739.39
  A 0.57 0.57 0.0 0 0 455.16 739.91
  L 455.44 739.85
  A 0.89 0.88 85.4 0 0 456.14 739.02
  Q 456.45 730.18 456.38 723.00
  C 456.34 719.38 456.93 716.44 458.63 713.62
  Q 466.14 701.16 469.51 696.01
  A 0.21 0.21 0.0 0 1 469.90 696.11
  L 470.58 706.00
  A 0.84 0.83 88.9 0 0 471.39 706.78
  L 471.71 706.79
  A 0.30 0.30 0.0 0 0 472.02 706.49
  L 472.02 695.15
  A 7.09 6.95 -32.5 0 1 472.73 692.08
  C 475.67 686.11 477.64 682.17 477.37 675.07"
/>
<path stroke="#0d2130" vector-effect="non-scaling-stroke" d="
  M 564.39 526.72
  C 566.53 532.55 566.19 540.18 565.87 546.04
  A 0.83 0.82 59.2 0 0 567.44 546.44
  Q 568.85 543.42 568.79 540.43
  C 568.66 534.05 568.48 528.47 570.82 522.07
  A 1.61 1.58 48.5 0 0 570.87 521.13
  Q 570.35 519.16 568.82 518.26"
/>
<path stroke="#0d2130" vector-effect="non-scaling-stroke" d="
  M 566.88 513.50
  Q 569.15 512.12 569.41 506.65
  Q 569.69 500.54 569.55 498.77
  Q 568.68 487.98 568.40 484.71
  A 0.51 0.51 0.0 0 0 567.89 484.24
  L 567.53 484.24
  A 0.49 0.49 0.0 0 0 567.04 484.73
  Q 567.07 491.57 566.13 498.09
  Q 565.63 501.53 563.36 503.66
  A 0.75 0.75 0.0 0 1 562.50 503.77
  Q 561.04 502.98 561.22 504.24"
/>
<path stroke="#182237" vector-effect="non-scaling-stroke" d="
  M 513.93 426.03
  Q 515.78 425.62 517.13 424.79"
/>
<path stroke="#0d2130" vector-effect="non-scaling-stroke" d="
  M 517.13 424.79
  L 518.75 428.39
  A 1.06 1.06 0.0 0 0 520.77 428.00
  Q 521.22 417.80 519.49 406.34
  A 0.61 0.60 82.1 0 0 518.82 405.83
  L 518.77 405.83
  A 0.56 0.56 0.0 0 0 518.29 406.44
  Q 519.05 413.53 517.43 420.50"
/>
<path stroke="#182237" vector-effect="non-scaling-stroke" d="
  M 517.43 420.50
  Q 511.74 413.30 506.28 406.11
  C 497.96 395.16 489.86 388.82 475.83 386.89
  Q 457.66 384.40 440.06 387.37
  C 420.38 390.69 412.89 405.29 412.14 423.82
  C 411.15 448.07 412.44 468.21 413.98 498.44
  Q 414.07 500.26 414.31 512.88
  C 414.47 521.13 414.40 529.17 417.37 536.38
  C 421.65 546.75 435.28 547.29 444.74 547.06
  Q 472.06 546.38 495.80 547.82
  Q 499.11 548.02 502.94 548.75
  A 1.64 1.64 0.0 0 1 504.27 550.27
  C 504.62 557.08 504.11 562.00 506.29 567.10"
/>
<path stroke="#798189" vector-effect="non-scaling-stroke" d="
  M 498.34 579.86
  L 393.17 579.82
  A 1.72 1.72 0.0 0 1 391.45 578.10
  L 391.45 357.36
  A 0.12 0.12 0.0 0 1 391.57 357.24
  L 513.25 357.24
  A 3.70 3.69 71.7 0 1 516.22 358.74
  Q 519.31 362.94 522.05 367.43
  Q 533.31 385.88 544.78 404.96
  C 550.14 413.87 557.17 424.01 562.58 434.17
  C 566.29 441.14 570.19 446.23 573.63 452.40
  Q 579.52 462.96 584.98 471.77
  Q 587.85 476.40 590.80 480.23
  A 0.32 0.32 0.0 0 0 591.31 480.23
  C 598.11 471.23 602.44 463.64 609.53 451.03
  Q 611.72 447.13 612.60 446.21
  A 0.60 0.60 0.0 0 0 612.66 445.44
  Q 609.82 441.41 608.98 440.02
  Q 604.20 432.02 579.51 391.26
  C 568.75 373.51 554.27 348.29 541.12 326.75"
/>
<path stroke="#0d2130" vector-effect="non-scaling-stroke" d="
  M 541.12 326.75
  Q 540.62 325.47 538.76 324.49
  Q 536.35 323.23 531.06 323.03
  Q 514.88 322.42 502.18 323.03
  Q 491.55 323.55 484.14 323.64
  Q 448.36 324.09 408.88 322.91
  C 403.26 322.74 395.56 323.76 393.98 316.73
  A 0.76 0.75 84.5 0 0 393.27 316.14
  Q 392.31 316.09 391.51 316.80"
/>
<path stroke="#798189" vector-effect="non-scaling-stroke" d="
  M 391.51 316.80
  L 391.37 238.11
  A 0.52 0.51 -90.0 0 0 390.86 237.59
  L 384.17 237.52"
/>
<path stroke="#0d2130" vector-effect="non-scaling-stroke" d="
  M 384.17 237.52
  L 391.14 232.94
  A 2.11 2.11 0.0 0 0 391.34 229.56
  Q 388.57 227.22 383.89 227.02
  Q 374.53 226.62 362.37 226.77
  C 353.71 226.88 346.82 226.84 345.74 236.41
  Q 345.01 242.81 345.00 250.02
  Q 344.99 264.29 345.17 302.08
  C 345.20 308.13 346.14 315.70 345.12 322.48
  A 1.31 1.30 -88.3 0 1 343.95 323.59
  C 337.98 324.17 331.52 323.50 325.23 323.53
  Q 261.36 323.85 241.43 323.61
  Q 220.77 323.36 210.19 323.39
  Q 209.32 323.39 203.37 323.21
  Q 193.89 322.93 186.07 326.32"
/>
<path stroke="#798189" vector-effect="non-scaling-stroke" d="
  M 186.07 326.32
  L 169.24 326.13"
/>
<path stroke="#09231d" vector-effect="non-scaling-stroke" d="
  M 792.70 484.52
  Q 792.88 486.41 793.62 487.79
  A 0.61 0.61 0.0 0 0 794.67 487.82
  L 795.94 485.76"
/>
<path stroke="#727e7b" vector-effect="non-scaling-stroke" d="
  M 889.52 677.72
  L 618.93 677.71"
/>
<path stroke="#798189" vector-effect="non-scaling-stroke" d="
  M 618.93 677.71
  C 614.88 677.62 609.78 678.22 605.88 677.12
  A 0.57 0.57 0.0 0 1 605.54 676.28
  L 718.45 482.08
  A 1.31 1.30 15.1 0 0 717.32 480.12
  L 680.17 480.12
  A 2.65 2.65 0.0 0 0 677.89 481.42
  L 649.50 529.73"
/>
<path stroke="#727e7b" vector-effect="non-scaling-stroke" d="
  M 649.50 529.73
  L 643.92 538.62"
/>
<path stroke="#798189" vector-effect="non-scaling-stroke" d="
  M 643.92 538.62
  L 567.42 668.51"
/>
<path stroke="#727e7b" vector-effect="non-scaling-stroke" d="
  M 567.42 668.51
  Q 556.87 686.35 546.21 704.20
  Q 544.20 707.55 540.51 714.97"
/>
<path stroke="#11202a" vector-effect="non-scaling-stroke" d="
  M 517.43 420.50
  L 517.13 424.79"
/>
<path stroke="#727e7b" vector-effect="non-scaling-stroke" d="
  M 391.51 316.80
  L 391.59 326.01
  A 0.72 0.72 0.0 0 0 392.31 326.72
  L 541.12 326.75"
/>
<path stroke="#727e7b" vector-effect="non-scaling-stroke" d="
  M 479.29 610.78
  L 459.99 610.90"
/>
<path stroke="#798189" vector-effect="non-scaling-stroke" d="
  M 459.99 610.90
  Q 446.49 611.14 432.93 611.13
  C 418.70 611.11 407.53 611.30 395.55 607.70
  Q 379.04 602.75 369.28 591.06
  Q 362.18 582.54 358.02 571.85
  Q 354.09 561.77 354.10 549.99
  Q 354.25 383.20 354.17 368.64
  Q 354.14 363.16 354.05 358.07
  A 0.79 0.79 0.0 0 0 353.25 357.30
  L 157.69 357.56"
/>
<path stroke="#727e7b" vector-effect="non-scaling-stroke" d="
  M 384.17 237.52
  L 354.68 237.72
  A 0.77 0.77 0.0 0 0 353.92 238.56
  Q 354.14 240.77 354.15 242.50
  Q 354.22 261.49 354.26 322.24
  C 354.26 323.44 354.64 324.71 354.78 325.92
  A 0.47 0.47 0.0 0 1 354.31 326.45
  L 186.07 326.32"
/>
<path stroke="#0d2130" vector-effect="non-scaling-stroke" d="
  M 618.93 677.71
  Q 622.25 679.24 627.14 679.27
  Q 665.45 679.43 689.00 679.31
  Q 720.44 679.16 752.00 679.17
  Q 830.22 679.19 833.48 679.26
  C 852.55 679.63 872.40 679.14 884.72 679.18
  A 0.35 0.35 0.0 0 1 885.03 679.69
  Q 883.93 681.96 883.88 682.04
  Q 879.78 687.85 876.58 692.60
  C 873.75 696.79 871.77 701.59 869.38 704.97
  A 4.01 4.01 0.0 0 1 866.55 706.64
  Q 863.25 707.01 857.73 707.00
  Q 739.36 706.98 696.13 706.97
  Q 657.19 706.96 640.25 706.66
  C 620.84 706.32 605.51 707.30 586.23 706.83
  Q 570.85 706.46 553.35 707.16
  A 1.74 1.74 0.0 0 1 551.56 705.14
  Q 553.44 693.56 564.95 690.60
  A 1.96 1.92 -37.8 0 1 566.32 690.76
  Q 567.58 691.41 568.65 690.61
  A 1.31 1.29 -19.4 0 0 569.16 689.56
  Q 569.01 678.98 567.42 668.51"
/>
<path stroke="#0d2130" vector-effect="non-scaling-stroke" d="
  M 643.92 538.62
  Q 647.19 549.08 645.65 559.92
  A 0.67 0.67 0.0 0 0 646.92 560.29
  C 649.61 554.30 649.05 548.29 648.46 541.52
  A 22.11 22.01 -43.8 0 1 648.57 536.61
  L 649.50 529.73"
/>
<path stroke="#0d2130" vector-effect="non-scaling-stroke" d="
  M 459.99 610.90
  C 464.70 615.02 468.79 619.28 467.79 625.81
  Q 467.44 628.06 463.81 633.15
  Q 460.58 637.67 458.73 642.19
  A 0.81 0.80 -80.7 0 1 458.03 642.70
  C 451.09 643.10 442.72 642.53 435.01 642.73
  Q 414.07 643.30 392.01 642.20
  Q 386.00 641.90 380.05 640.23
  Q 378.82 639.89 376.25 640.49"
/>
<path stroke="#0d2130" vector-effect="non-scaling-stroke" d="
  M 318.50 580.32
  Q 320.25 576.02 319.38 571.35
  C 316.87 557.75 316.77 545.26 316.92 529.60
  Q 317.12 509.44 317.18 501.58
  C 317.30 485.58 316.40 470.10 316.84 453.64
  C 317.18 440.63 317.53 430.39 317.32 418.66
  Q 317.22 413.43 317.52 406.83
  C 317.67 403.52 317.39 398.82 317.40 396.52
  C 317.43 392.54 316.57 389.97 312.95 388.65
  Q 308.67 387.08 306.79 386.99
  Q 291.95 386.25 263.25 386.86
  Q 249.07 387.15 182.94 386.71
  Q 173.04 386.64 167.61 387.02
  Q 154.60 387.93 152.31 388.53
  Q 151.54 388.74 151.39 388.77
  A 0.54 0.53 75.4 0 1 150.75 388.39
  L 148.38 379.91"
/>
<path stroke="#0d2130" vector-effect="non-scaling-stroke" d="
  M 567.5361 346.7226
  A 7.49 1.09 -88.5 0 0 566.2504 354.1815
  A 7.49 1.09 -88.5 0 0 567.1439 361.6974
  A 7.49 1.09 -88.5 0 0 568.4296 354.2385
  A 7.49 1.09 -88.5 0 0 567.5361 346.7226"
/>
<path stroke="#0d2130" vector-effect="non-scaling-stroke" d="
  M 599.15 398.12
  C 598.73 404.41 597.36 410.33 599.02 416.17
  A 0.68 0.67 -51.4 0 0 600.34 416.02
  Q 600.89 407.26 599.90 398.02
  A 0.18 0.18 0.0 0 0 599.72 397.86
  L 599.43 397.86
  A 0.28 0.28 0.0 0 0 599.15 398.12"
/>
<path stroke="#0d2130" vector-effect="non-scaling-stroke" d="
  M 535.79 434.88
  L 534.13 434.97
  A 0.66 0.66 0.0 0 0 533.51 435.67
  L 533.99 444.28
  A 10.79 1.36 86.8 0 0 535.95 454.98
  L 536.21 454.97
  A 10.79 1.36 86.8 0 0 536.97 444.12
  L 536.48 435.50
  A 0.66 0.66 0.0 0 0 535.79 434.88"
/>
<path stroke="#0d2130" vector-effect="non-scaling-stroke" d="
  M 570.60 465.96
  A 0.77 0.77 0.0 0 0 572.13 465.83
  L 572.10 456.25
  A 0.59 0.58 76.7 0 0 571.25 455.73
  L 570.11 456.29
  A 1.57 1.56 -18.0 0 0 569.26 457.94
  L 570.60 465.96"
/>
<path stroke="#0d2130" vector-effect="non-scaling-stroke" d="
  M 741.91 520.37
  L 741.12 528.80
  A 1.63 1.62 13.9 0 0 742.12 530.45
  L 743.35 530.95
  A 0.61 0.61 0.0 0 0 744.19 530.34
  L 743.51 520.39
  A 0.80 0.80 0.0 0 0 741.91 520.37"
/>
<path stroke="#0d2130" vector-effect="non-scaling-stroke" d="
  M 533.87 584.44
  L 534.52 594.05
  A 0.95 0.95 0.0 0 0 536.41 594.07
  L 537.12 586.50
  A 2.80 2.80 0.0 0 0 535.66 583.78
  L 535.24 583.55
  A 0.93 0.93 0.0 0 0 533.87 584.44"
/>
<path stroke="#0d2130" vector-effect="non-scaling-stroke" d="
  M 342.63 595.51
  A 0.29 0.29 0.0 0 0 342.08 595.64
  L 342.08 610.36
  A 0.66 0.65 90.0 0 0 342.73 611.02
  L 343.14 611.02
  A 1.49 1.48 -86.7 0 0 344.61 609.70
  Q 345.53 601.35 342.63 595.51"
/>
<path stroke="#0d2130" vector-effect="non-scaling-stroke" d="
  M 614.0516 598.1056
  A 6.50 1.62 -97.5 0 0 613.2939 604.7615
  A 6.50 1.62 -97.5 0 0 615.7484 610.9944
  A 6.50 1.62 -97.5 0 0 616.5061 604.3385
  A 6.50 1.62 -97.5 0 0 614.0516 598.1056"
/>
</g>
<path fill="#1b2131" d="
  M 1001.00 0.00
  L 1001.00 992.00
  L 898.51 992.00
  Q 911.91 971.39 935.65 964.98
  A 1.58 1.56 7.3 0 0 936.58 964.27
  Q 937.29 963.06 936.78 961.98
  A 1.54 1.54 0.0 0 0 935.81 961.16
  Q 901.08 951.05 890.89 916.33
  A 1.80 1.76 -80.5 0 0 890.25 915.41
  Q 889.00 914.47 887.69 915.45
  A 1.69 1.60 81.3 0 0 887.10 916.30
  Q 876.98 950.96 842.31 961.14
  A 1.80 1.79 8.0 0 0 841.31 961.89
  Q 840.53 963.08 841.52 964.39
  A 1.78 1.78 0.0 0 0 842.45 965.02
  Q 866.10 971.46 879.55 992.00
  L 0.00 992.00
  L 0.00 0.00
  L 1001.00 0.00
  Z
  M 893.90 765.24
  Q 905.80 749.16 916.44 732.22
  C 922.16 730.28 923.55 728.14 926.79 722.51
  Q 929.69 717.47 932.80 711.28
  Q 933.76 709.37 938.24 703.59
  C 944.06 696.08 945.35 690.11 947.99 680.26
  A 0.02 0.02 0.0 0 1 948.03 680.26
  L 950.01 689.92
  A 0.80 0.80 0.0 0 0 951.57 689.92
  C 953.20 682.27 952.15 674.99 953.89 669.83
  Q 954.11 669.18 957.95 660.54
  Q 961.37 652.86 963.20 644.18
  A 0.27 0.27 0.0 0 1 963.73 644.18
  L 966.49 656.98
  A 0.63 0.63 0.0 0 0 967.73 656.87
  Q 968.19 644.28 968.18 638.82
  Q 968.17 629.44 969.25 624.85
  C 971.06 617.20 975.86 609.04 980.34 602.51
  A 0.61 0.61 0.0 0 1 981.44 602.77
  L 982.62 610.71
  A 0.75 0.75 0.0 0 0 984.10 610.67
  C 984.57 605.91 984.63 599.65 984.81 589.63
  Q 984.95 581.89 984.67 571.39
  Q 984.26 556.14 984.66 536.20
  Q 984.79 529.37 985.90 520.13
  Q 988.39 499.45 987.32 481.71
  Q 987.11 478.17 985.67 466.74
  C 984.94 460.92 985.26 455.18 984.81 449.95
  Q 984.37 444.81 984.73 437.35
  C 985.20 427.74 984.37 415.29 984.78 404.54
  C 985.09 396.22 985.66 389.73 983.81 382.90
  A 0.47 0.47 0.0 0 0 982.89 382.98
  L 981.55 397.30
  A 0.08 0.08 0.0 0 1 981.40 397.32
  Q 980.13 392.61 978.13 384.04
  C 976.94 378.93 974.78 375.86 971.63 372.19
  C 967.35 367.17 965.60 359.06 964.00 352.53
  C 961.50 342.31 956.29 332.87 954.26 323.21
  C 952.13 313.08 954.59 301.35 950.93 291.50
  A 0.13 0.13 0.0 0 0 950.68 291.51
  L 949.38 296.35
  A 0.97 0.97 0.0 0 1 947.82 296.84
  Q 946.97 296.13 946.66 295.59
  Q 938.58 281.41 930.21 270.45
  C 927.18 266.48 924.34 261.70 923.09 257.73
  Q 919.68 246.93 916.69 242.83
  Q 910.91 234.91 904.04 224.99
  C 901.24 220.95 898.55 218.04 895.25 214.14
  C 892.51 210.90 890.64 207.61 888.22 203.33
  C 887.07 201.31 884.83 198.50 883.40 197.60
  C 876.29 193.12 870.39 188.82 864.82 183.31
  C 860.05 178.60 857.44 172.34 856.36 165.74
  Q 853.03 163.81 849.25 163.52
  Q 838.36 157.01 832.54 151.91
  C 824.92 145.24 816.36 137.31 808.47 131.60
  Q 801.50 126.56 768.99 102.36
  A 0.12 0.12 0.0 0 1 769.07 102.14
  L 774.98 102.33
  A 0.83 0.83 0.0 0 0 775.37 100.75
  Q 772.59 99.40 769.10 99.13
  Q 765.61 98.86 755.78 98.55
  A 2.66 2.59 62.2 0 1 754.45 98.12
  C 743.05 90.50 726.53 77.85 710.85 68.71
  Q 703.40 66.64 695.48 66.98
  C 687.42 66.75 682.33 65.28 674.82 61.98
  C 670.81 60.22 667.70 59.53 663.67 58.22
  A 1.38 1.38 0.0 0 1 662.90 56.21
  L 663.60 55.00
  A 0.77 0.76 -50.7 0 0 663.52 54.11
  Q 662.39 52.79 660.61 52.62
  Q 648.58 51.49 638.34 47.87
  Q 630.09 44.96 627.05 44.36
  Q 616.79 42.33 615.41 42.31
  C 607.41 42.22 601.96 42.80 596.58 39.83
  A 0.96 0.96 0.0 0 1 596.35 38.32
  C 597.55 37.09 601.64 37.16 605.22 36.94
  A 0.34 0.33 -8.2 0 0 605.53 36.54
  L 605.47 36.27
  A 0.76 0.75 84.5 0 0 604.76 35.68
  C 588.30 35.11 572.15 35.49 555.12 35.21
  Q 536.05 34.91 512.20 35.68
  Q 502.22 36.01 488.78 35.57
  Q 475.15 35.12 458.22 35.54
  A 0.87 0.87 0.0 0 0 457.37 36.38
  L 457.37 36.42
  A 0.80 0.80 0.0 0 0 458.15 37.20
  L 490.49 38.26
  A 0.32 0.32 0.0 0 1 490.73 38.78
  Q 488.25 41.81 483.24 42.24
  Q 474.63 42.96 466.82 42.56
  Q 463.55 42.39 455.69 43.80
  Q 443.09 46.05 435.50 48.95
  C 428.73 51.54 423.04 52.77 416.07 54.53
  C 411.05 55.80 407.49 57.87 402.55 58.54
  Q 398.21 59.13 394.29 59.94
  Q 391.16 60.59 382.58 64.87
  C 380.83 65.74 378.69 66.38 377.31 66.59
  Q 370.35 67.65 364.92 69.40
  Q 361.11 70.63 351.07 75.87
  C 347.03 77.98 342.64 82.43 338.83 83.52
  Q 328.57 86.46 319.81 91.54
  C 316.52 93.44 313.43 96.43 309.97 98.26
  A 1.80 1.74 27.5 0 1 309.26 98.47
  L 297.15 99.58
  A 0.58 0.58 0.0 0 0 296.62 100.16
  Q 296.61 104.71 293.71 106.52
  C 288.82 109.59 284.30 111.86 280.36 116.37
  Q 275.23 122.24 270.43 126.08
  C 264.21 131.05 258.23 132.39 250.56 131.42
  A 1.33 1.32 1.6 0 0 249.07 132.82
  L 249.25 135.51
  A 0.85 0.83 65.1 0 1 249.02 136.16
  Q 243.07 142.42 236.44 151.85
  C 234.09 155.18 230.81 158.51 227.85 160.86
  C 225.26 162.92 222.14 163.25 219.28 164.72
  A 7.32 7.28 -81.4 0 0 217.42 166.10
  C 213.97 169.66 209.96 173.22 207.10 177.46
  C 201.57 185.64 196.67 191.78 187.53 196.45
  Q 185.62 197.42 184.78 199.04
  Q 176.65 214.71 168.85 224.14
  Q 157.30 238.08 153.48 244.17
  Q 151.35 247.56 150.82 248.70
  C 149.29 252.01 147.79 255.53 144.90 256.95
  Q 142.18 258.29 141.36 258.80
  A 5.37 5.36 80.6 0 0 138.95 262.17
  C 138.02 266.28 138.03 270.42 134.93 274.15
  C 130.77 279.15 126.07 284.02 124.86 290.22
  Q 123.02 299.65 120.25 305.89
  C 118.71 309.40 115.29 313.64 114.29 317.44
  Q 113.42 320.71 112.53 323.96
  A 0.46 0.46 0.0 0 1 111.86 324.24
  L 107.01 321.42
  A 0.40 0.39 -73.7 0 0 106.42 321.75
  Q 106.28 324.63 106.10 333.57
  Q 105.97 339.76 105.02 341.84
  Q 100.56 351.62 98.04 362.32
  C 97.42 364.92 96.23 368.63 93.19 369.27
  A 0.39 0.39 0.0 0 1 92.72 368.91
  L 91.87 356.92
  A 0.64 0.64 0.0 0 0 91.05 356.34
  L 91.02 356.35
  A 0.99 0.98 -6.2 0 0 90.27 357.28
  Q 89.83 377.38 88.36 394.76
  Q 87.97 399.43 85.59 412.38
  Q 85.22 414.38 85.06 416.51
  Q 84.98 417.64 84.86 420.70
  Q 84.68 425.38 84.52 429.20
  C 84.21 436.58 82.37 443.45 81.91 450.35
  Q 81.80 452.04 80.10 459.16
  C 78.42 466.20 78.95 473.19 79.71 480.39
  A 25.12 24.74 -45.8 0 1 79.74 485.22
  Q 78.92 494.05 78.99 495.47
  Q 79.92 514.36 79.86 524.56
  C 79.82 531.72 81.28 537.08 81.88 544.14
  Q 82.29 548.93 83.78 558.74
  Q 85.39 569.35 87.33 581.35
  C 88.53 588.82 88.41 595.95 89.14 603.16
  C 89.86 610.20 89.21 619.22 89.93 626.79
  A 0.82 0.82 0.0 0 0 91.57 626.79
  L 92.71 614.60
  A 0.73 0.73 0.0 0 1 94.14 614.44
  Q 94.20 614.61 94.25 614.86
  C 97.25 629.76 102.73 642.23 110.62 660.45
  C 113.18 666.35 114.69 671.33 116.95 675.60
  Q 119.68 680.74 120.32 683.36
  C 122.03 690.38 121.51 696.41 121.29 705.21
  A 1.96 1.95 -79.4 0 0 122.57 707.09
  L 122.63 707.11
  A 1.09 1.09 0.0 0 0 124.09 706.12
  Q 124.13 704.05 124.75 702.58
  A 0.71 0.71 0.0 0 1 125.98 702.44
  C 128.84 706.42 133.63 710.93 136.42 715.82
  Q 139.39 721.01 139.56 721.46
  Q 141.78 727.40 143.85 729.97
  Q 148.82 736.18 153.16 743.09
  A 1.75 1.69 32.6 0 1 153.41 744.14
  Q 152.95 750.26 154.18 754.50
  A 1.08 1.08 0.0 0 0 156.30 754.24
  L 156.35 752.80
  A 0.18 0.18 0.0 0 1 156.69 752.74
  C 158.29 756.41 159.90 759.71 162.12 762.60
  Q 171.08 774.28 182.27 783.39
  A 11.88 11.86 6.0 0 1 185.31 787.14
  C 188.92 794.15 191.59 800.70 197.99 804.53
  C 203.14 807.60 207.24 810.71 211.73 815.67
  Q 214.85 819.13 224.61 829.15
  Q 226.85 831.46 233.00 836.08
  Q 241.93 842.79 249.32 849.94
  Q 251.28 851.83 256.01 858.15
  C 257.48 860.11 259.83 861.95 261.79 862.55
  C 267.58 864.33 272.91 867.15 279.04 871.12
  Q 285.71 875.45 290.35 877.51
  C 294.70 879.44 298.84 882.96 301.45 885.93
  Q 307.18 892.46 311.99 896.90
  C 313.08 897.91 314.99 898.99 316.17 899.05
  Q 324.64 899.41 327.28 900.47
  Q 331.19 902.05 346.47 908.38
  C 354.60 911.75 361.85 916.48 369.97 920.05
  C 374.43 922.01 379.76 923.77 383.55 926.97
  A 0.19 0.19 0.0 0 1 383.45 927.30
  L 374.43 928.64
  A 0.43 0.43 0.0 0 0 374.34 929.47
  Q 378.76 931.21 383.63 931.20
  Q 394.38 931.20 403.28 932.33
  C 410.16 933.20 419.29 934.14 426.00 936.41
  C 433.22 938.84 441.25 938.40 447.63 941.76
  A 0.48 0.48 0.0 0 1 447.44 942.67
  L 425.93 944.14
  A 0.66 0.66 0.0 0 0 425.72 945.41
  Q 428.61 946.64 432.59 946.77
  Q 438.97 946.96 456.54 945.05
  Q 458.68 944.81 461.83 945.27
  Q 477.05 947.46 485.23 948.89
  C 494.97 950.60 504.36 949.86 514.29 950.71
  Q 521.42 951.32 537.39 951.63
  Q 546.88 951.82 558.10 950.80
  C 570.00 949.73 588.53 949.02 602.55 946.16
  C 613.91 943.84 628.39 938.55 641.52 936.65
  C 649.54 935.49 658.12 931.65 666.15 931.52
  Q 675.08 931.38 690.88 931.33
  Q 694.26 931.32 698.36 929.27
  A 1.55 1.50 -1.6 0 0 699.05 928.56
  Q 703.11 919.94 710.19 914.73
  C 713.36 912.39 715.78 910.14 718.56 909.18
  Q 728.12 905.86 739.92 900.94
  C 745.59 898.58 748.60 898.76 755.62 899.16
  Q 757.24 899.25 760.91 897.95
  A 1.20 1.18 -87.4 0 0 761.60 897.31
  C 764.26 891.54 767.76 884.76 773.04 881.55
  C 776.61 879.38 779.87 878.09 783.86 874.83
  Q 793.31 867.09 795.10 866.09
  Q 804.01 861.09 810.94 856.97
  Q 814.79 854.68 820.37 848.71
  A 26.55 26.20 3.5 0 1 824.32 845.26
  L 828.22 842.49
  A 6.19 5.97 1.0 0 0 829.39 841.40
  C 831.15 839.29 834.59 835.34 837.52 834.17
  C 847.65 830.16 856.39 828.42 860.16 818.47
  C 861.71 814.39 863.61 808.52 866.30 806.69
  C 868.67 805.06 871.34 803.75 871.68 801.61
  Q 872.02 799.52 873.78 798.19
  C 879.74 793.71 881.75 790.60 884.45 784.69
  C 886.16 780.94 888.72 778.51 892.54 774.32
  Q 896.24 770.26 893.90 765.24
  Z"
/>
<path fill="#0b2718" d="
  M 695.48 66.98
  L 707.32 71.25
  A 1.42 1.41 -58.5 0 0 708.84 70.88
  L 710.85 68.71
  C 726.53 77.85 743.05 90.50 754.45 98.12
  A 2.66 2.59 62.2 0 0 755.78 98.55
  Q 765.61 98.86 769.10 99.13
  Q 772.59 99.40 775.37 100.75
  A 0.83 0.83 0.0 0 1 774.98 102.33
  L 769.07 102.14
  A 0.12 0.12 0.0 0 0 768.99 102.36
  Q 801.50 126.56 808.47 131.60
  C 816.36 137.31 824.92 145.24 832.54 151.91
  Q 838.36 157.01 849.25 163.52
  C 850.75 165.51 854.25 169.34 856.36 165.74
  C 857.44 172.34 860.05 178.60 864.82 183.31
  C 870.39 188.82 876.29 193.12 883.40 197.60
  C 884.83 198.50 887.07 201.31 888.22 203.33
  C 890.64 207.61 892.51 210.90 895.25 214.14
  C 898.55 218.04 901.24 220.95 904.04 224.99
  Q 910.91 234.91 916.69 242.83
  Q 919.68 246.93 923.09 257.73
  C 924.34 261.70 927.18 266.48 930.21 270.45
  Q 938.58 281.41 946.66 295.59
  Q 946.97 296.13 947.82 296.84
  A 0.97 0.97 0.0 0 0 949.38 296.35
  L 950.68 291.51
  A 0.13 0.13 0.0 0 1 950.93 291.50
  C 954.59 301.35 952.13 313.08 954.26 323.21
  C 956.29 332.87 961.50 342.31 964.00 352.53
  C 965.60 359.06 967.35 367.17 971.63 372.19
  C 974.78 375.86 976.94 378.93 978.13 384.04
  Q 980.13 392.61 981.40 397.32
  A 0.08 0.08 0.0 0 0 981.55 397.30
  L 982.89 382.98
  A 0.47 0.47 0.0 0 1 983.81 382.90
  C 985.66 389.73 985.09 396.22 984.78 404.54
  C 984.37 415.29 985.20 427.74 984.73 437.35
  Q 984.37 444.81 984.81 449.95
  C 985.26 455.18 984.94 460.92 985.67 466.74
  Q 987.11 478.17 987.32 481.71
  Q 988.39 499.45 985.90 520.13
  Q 984.79 529.37 984.66 536.20
  Q 984.26 556.14 984.67 571.39
  Q 984.95 581.89 984.81 589.63
  C 984.63 599.65 984.57 605.91 984.10 610.67
  A 0.75 0.75 0.0 0 1 982.62 610.71
  L 981.44 602.77
  A 0.61 0.61 0.0 0 0 980.34 602.51
  C 975.86 609.04 971.06 617.20 969.25 624.85
  Q 968.17 629.44 968.18 638.82
  Q 968.19 644.28 967.73 656.87
  A 0.63 0.63 0.0 0 1 966.49 656.98
  L 963.73 644.18
  A 0.27 0.27 0.0 0 0 963.20 644.18
  Q 961.37 652.86 957.95 660.54
  Q 954.11 669.18 953.89 669.83
  C 952.15 674.99 953.20 682.27 951.57 689.92
  A 0.80 0.80 0.0 0 1 950.01 689.92
  L 948.03 680.26
  A 0.02 0.02 0.0 0 0 947.99 680.26
  C 945.35 690.11 944.06 696.08 938.24 703.59
  Q 933.76 709.37 932.80 711.28
  Q 929.69 717.47 926.79 722.51
  C 923.55 728.14 922.16 730.28 916.44 732.22
  Q 977.55 634.52 984.14 519.57
  C 984.99 504.71 984.92 488.54 983.97 474.26
  C 982.17 447.36 978.56 419.78 972.59 393.10
  Q 970.73 384.78 967.48 374.03
  C 961.85 355.40 956.11 338.12 948.39 320.34
  Q 940.81 302.87 936.56 294.46
  C 932.96 287.35 925.89 274.22 920.70 265.51
  Q 889.92 213.84 846.41 171.58
  Q 819.96 145.90 792.03 125.97
  Q 744.01 91.72 688.41 70.86
  Q 660.93 60.54 636.31 55.21
  C 626.50 53.09 616.89 50.72 608.01 49.33
  Q 582.93 45.39 562.49 43.98
  C 525.42 41.42 486.94 43.77 449.76 51.40
  Q 433.36 54.76 426.96 56.23
  Q 404.68 61.35 383.09 69.38
  Q 352.64 80.71 320.77 97.57
  Q 292.65 112.45 259.96 137.01
  C 244.81 148.40 229.66 162.28 216.72 174.98
  Q 185.25 205.88 160.42 242.65
  Q 136.48 278.11 118.02 320.98
  C 100.06 362.68 89.16 407.03 84.30 452.47
  C 81.83 475.46 81.49 498.69 82.65 520.76
  Q 84.13 548.75 89.35 575.38
  Q 103.22 646.00 136.59 707.51
  Q 146.93 726.59 152.14 734.51
  Q 162.62 750.46 170.12 760.98
  C 187.02 784.70 207.23 806.53 228.44 826.09
  Q 235.46 832.56 241.30 837.74
  Q 257.60 852.16 280.79 867.69
  Q 297.56 878.93 309.82 885.92
  C 340.80 903.60 375.27 918.50 410.78 928.56
  Q 424.21 932.37 430.38 933.84
  C 504.35 951.54 581.11 950.46 654.16 929.65
  Q 677.12 923.11 694.23 916.44
  Q 724.65 904.59 754.10 888.07
  C 761.09 884.16 767.77 879.82 774.12 875.94
  Q 781.66 871.33 788.79 866.35
  Q 819.78 844.72 847.16 818.18
  C 854.76 810.81 862.11 802.39 868.62 795.56
  C 877.08 786.68 885.63 775.47 893.90 765.24
  Q 896.24 770.26 892.54 774.32
  C 888.72 778.51 886.16 780.94 884.45 784.69
  C 881.75 790.60 879.74 793.71 873.78 798.19
  Q 872.02 799.52 871.68 801.61
  C 871.34 803.75 868.67 805.06 866.30 806.69
  C 863.61 808.52 861.71 814.39 860.16 818.47
  C 856.39 828.42 847.65 830.16 837.52 834.17
  C 834.59 835.34 831.15 839.29 829.39 841.40
  A 6.19 5.97 1.0 0 1 828.22 842.49
  L 824.32 845.26
  A 26.55 26.20 3.5 0 0 820.37 848.71
  Q 814.79 854.68 810.94 856.97
  Q 804.01 861.09 795.10 866.09
  Q 793.31 867.09 783.86 874.83
  C 779.87 878.09 776.61 879.38 773.04 881.55
  C 767.76 884.76 764.26 891.54 761.60 897.31
  A 1.20 1.18 -87.4 0 1 760.91 897.95
  Q 757.24 899.25 755.62 899.16
  C 748.60 898.76 745.59 898.58 739.92 900.94
  Q 728.12 905.86 718.56 909.18
  C 715.78 910.14 713.36 912.39 710.19 914.73
  Q 703.11 919.94 699.05 928.56
  A 1.55 1.50 -1.6 0 1 698.36 929.27
  Q 694.26 931.32 690.88 931.33
  Q 675.08 931.38 666.15 931.52
  C 658.12 931.65 649.54 935.49 641.52 936.65
  C 628.39 938.55 613.91 943.84 602.55 946.16
  C 588.53 949.02 570.00 949.73 558.10 950.80
  Q 546.88 951.82 537.39 951.63
  Q 521.42 951.32 514.29 950.71
  C 504.36 949.86 494.97 950.60 485.23 948.89
  Q 477.05 947.46 461.83 945.27
  Q 458.68 944.81 456.54 945.05
  Q 438.97 946.96 432.59 946.77
  Q 428.61 946.64 425.72 945.41
  A 0.66 0.66 0.0 0 1 425.93 944.14
  L 447.44 942.67
  A 0.48 0.48 0.0 0 0 447.63 941.76
  C 441.25 938.40 433.22 938.84 426.00 936.41
  C 419.29 934.14 410.16 933.20 403.28 932.33
  Q 394.38 931.20 383.63 931.20
  Q 378.76 931.21 374.34 929.47
  A 0.43 0.43 0.0 0 1 374.43 928.64
  L 383.45 927.30
  A 0.19 0.19 0.0 0 0 383.55 926.97
  C 379.76 923.77 374.43 922.01 369.97 920.05
  C 361.85 916.48 354.60 911.75 346.47 908.38
  Q 331.19 902.05 327.28 900.47
  Q 324.64 899.41 316.17 899.05
  C 314.99 898.99 313.08 897.91 311.99 896.90
  Q 307.18 892.46 301.45 885.93
  C 298.84 882.96 294.70 879.44 290.35 877.51
  Q 285.71 875.45 279.04 871.12
  C 272.91 867.15 267.58 864.33 261.79 862.55
  C 259.83 861.95 257.48 860.11 256.01 858.15
  Q 251.28 851.83 249.32 849.94
  Q 241.93 842.79 233.00 836.08
  Q 226.85 831.46 224.61 829.15
  Q 214.85 819.13 211.73 815.67
  C 207.24 810.71 203.14 807.60 197.99 804.53
  C 191.59 800.70 188.92 794.15 185.31 787.14
  A 11.88 11.86 6.0 0 0 182.27 783.39
  Q 171.08 774.28 162.12 762.60
  C 159.90 759.71 158.29 756.41 156.69 752.74
  A 0.18 0.18 0.0 0 0 156.35 752.80
  L 156.30 754.24
  A 1.08 1.08 0.0 0 1 154.18 754.50
  Q 152.95 750.26 153.41 744.14
  A 1.75 1.69 32.6 0 0 153.16 743.09
  Q 148.82 736.18 143.85 729.97
  Q 141.78 727.40 139.56 721.46
  Q 139.39 721.01 136.42 715.82
  C 133.63 710.93 128.84 706.42 125.98 702.44
  A 0.71 0.71 0.0 0 0 124.75 702.58
  Q 124.13 704.05 124.09 706.12
  A 1.09 1.09 0.0 0 1 122.63 707.11
  L 122.57 707.09
  A 1.96 1.95 -79.4 0 1 121.29 705.21
  C 121.51 696.41 122.03 690.38 120.32 683.36
  Q 119.68 680.74 116.95 675.60
  C 114.69 671.33 113.18 666.35 110.62 660.45
  C 102.73 642.23 97.25 629.76 94.25 614.86
  Q 94.20 614.61 94.14 614.44
  A 0.73 0.73 0.0 0 0 92.71 614.60
  L 91.57 626.79
  A 0.82 0.82 0.0 0 1 89.93 626.79
  C 89.21 619.22 89.86 610.20 89.14 603.16
  C 88.41 595.95 88.53 588.82 87.33 581.35
  Q 85.39 569.35 83.78 558.74
  Q 82.29 548.93 81.88 544.14
  C 81.28 537.08 79.82 531.72 79.86 524.56
  Q 79.92 514.36 78.99 495.47
  Q 78.92 494.05 79.74 485.22
  A 25.12 24.74 -45.8 0 0 79.71 480.39
  C 78.95 473.19 78.42 466.20 80.10 459.16
  Q 81.80 452.04 81.91 450.35
  C 82.37 443.45 84.21 436.58 84.52 429.20
  Q 84.68 425.38 84.86 420.70
  Q 84.98 417.64 85.06 416.51
  Q 85.22 414.38 85.59 412.38
  Q 87.97 399.43 88.36 394.76
  Q 89.83 377.38 90.27 357.28
  A 0.99 0.98 -6.2 0 1 91.02 356.35
  L 91.05 356.34
  A 0.64 0.64 0.0 0 1 91.87 356.92
  L 92.72 368.91
  A 0.39 0.39 0.0 0 0 93.19 369.27
  C 96.23 368.63 97.42 364.92 98.04 362.32
  Q 100.56 351.62 105.02 341.84
  Q 105.97 339.76 106.10 333.57
  Q 106.28 324.63 106.42 321.75
  A 0.40 0.39 -73.7 0 1 107.01 321.42
  L 111.86 324.24
  A 0.46 0.46 0.0 0 0 112.53 323.96
  Q 113.42 320.71 114.29 317.44
  C 115.29 313.64 118.71 309.40 120.25 305.89
  Q 123.02 299.65 124.86 290.22
  C 126.07 284.02 130.77 279.15 134.93 274.15
  C 138.03 270.42 138.02 266.28 138.95 262.17
  A 5.37 5.36 80.6 0 1 141.36 258.80
  Q 142.18 258.29 144.90 256.95
  C 147.79 255.53 149.29 252.01 150.82 248.70
  Q 151.35 247.56 153.48 244.17
  Q 157.30 238.08 168.85 224.14
  Q 176.65 214.71 184.78 199.04
  Q 185.62 197.42 187.53 196.45
  C 196.67 191.78 201.57 185.64 207.10 177.46
  C 209.96 173.22 213.97 169.66 217.42 166.10
  A 7.32 7.28 -81.4 0 1 219.28 164.72
  C 222.14 163.25 225.26 162.92 227.85 160.86
  C 230.81 158.51 234.09 155.18 236.44 151.85
  Q 243.07 142.42 249.02 136.16
  A 0.85 0.83 65.1 0 0 249.25 135.51
  L 249.07 132.82
  A 1.33 1.32 1.6 0 1 250.56 131.42
  C 258.23 132.39 264.21 131.05 270.43 126.08
  Q 275.23 122.24 280.36 116.37
  C 284.30 111.86 288.82 109.59 293.71 106.52
  Q 296.61 104.71 296.62 100.16
  A 0.58 0.58 0.0 0 1 297.15 99.58
  L 309.26 98.47
  A 1.80 1.74 27.5 0 0 309.97 98.26
  C 313.43 96.43 316.52 93.44 319.81 91.54
  Q 328.57 86.46 338.83 83.52
  C 342.64 82.43 347.03 77.98 351.07 75.87
  Q 361.11 70.63 364.92 69.40
  Q 370.35 67.65 377.31 66.59
  C 378.69 66.38 380.83 65.74 382.58 64.87
  Q 391.16 60.59 394.29 59.94
  Q 398.21 59.13 402.55 58.54
  C 407.49 57.87 411.05 55.80 416.07 54.53
  C 423.04 52.77 428.73 51.54 435.50 48.95
  Q 443.09 46.05 455.69 43.80
  Q 463.55 42.39 466.82 42.56
  Q 474.63 42.96 483.24 42.24
  Q 488.25 41.81 490.73 38.78
  A 0.32 0.32 0.0 0 0 490.49 38.26
  L 458.15 37.20
  A 0.80 0.80 0.0 0 1 457.37 36.42
  L 457.37 36.38
  A 0.87 0.87 0.0 0 1 458.22 35.54
  Q 475.15 35.12 488.78 35.57
  Q 502.22 36.01 512.20 35.68
  Q 536.05 34.91 555.12 35.21
  C 572.15 35.49 588.30 35.11 604.76 35.68
  A 0.76 0.75 84.5 0 1 605.47 36.27
  L 605.53 36.54
  A 0.34 0.33 -8.2 0 1 605.22 36.94
  C 601.64 37.16 597.55 37.09 596.35 38.32
  A 0.96 0.96 0.0 0 0 596.58 39.83
  C 601.96 42.80 607.41 42.22 615.41 42.31
  Q 616.79 42.33 627.05 44.36
  Q 630.09 44.96 638.34 47.87
  Q 648.58 51.49 660.61 52.62
  Q 662.39 52.79 663.52 54.11
  A 0.77 0.76 -50.7 0 1 663.60 55.00
  L 662.90 56.21
  A 1.38 1.38 0.0 0 0 663.67 58.22
  C 667.70 59.53 670.81 60.22 674.82 61.98
  C 682.33 65.28 687.42 66.75 695.48 66.98
  Z"
/>
<path fill="#8af683" d="
  M 916.44 732.22
  Q 905.80 749.16 893.90 765.24
  C 885.63 775.47 877.08 786.68 868.62 795.56
  C 862.11 802.39 854.76 810.81 847.16 818.18
  Q 819.78 844.72 788.79 866.35
  Q 781.66 871.33 774.12 875.94
  C 767.77 879.82 761.09 884.16 754.10 888.07
  Q 724.65 904.59 694.23 916.44
  Q 677.12 923.11 654.16 929.65
  C 581.11 950.46 504.35 951.54 430.38 933.84
  Q 424.21 932.37 410.78 928.56
  C 375.27 918.50 340.80 903.60 309.82 885.92
  Q 297.56 878.93 280.79 867.69
  Q 257.60 852.16 241.30 837.74
  Q 235.46 832.56 228.44 826.09
  C 207.23 806.53 187.02 784.70 170.12 760.98
  Q 162.62 750.46 152.14 734.51
  Q 146.93 726.59 136.59 707.51
  Q 103.22 646.00 89.35 575.38
  Q 84.13 548.75 82.65 520.76
  C 81.49 498.69 81.83 475.46 84.30 452.47
  C 89.16 407.03 100.06 362.68 118.02 320.98
  Q 136.48 278.11 160.42 242.65
  Q 185.25 205.88 216.72 174.98
  C 229.66 162.28 244.81 148.40 259.96 137.01
  Q 292.65 112.45 320.77 97.57
  Q 352.64 80.71 383.09 69.38
  Q 404.68 61.35 426.96 56.23
  Q 433.36 54.76 449.76 51.40
  C 486.94 43.77 525.42 41.42 562.49 43.98
  Q 582.93 45.39 608.01 49.33
  C 616.89 50.72 626.50 53.09 636.31 55.21
  Q 660.93 60.54 688.41 70.86
  Q 744.01 91.72 792.03 125.97
  Q 819.96 145.90 846.41 171.58
  Q 889.92 213.84 920.70 265.51
  C 925.89 274.22 932.96 287.35 936.56 294.46
  Q 940.81 302.87 948.39 320.34
  C 956.11 338.12 961.85 355.40 967.48 374.03
  Q 970.73 384.78 972.59 393.10
  C 978.56 419.78 982.17 447.36 983.97 474.26
  C 984.92 488.54 984.99 504.71 984.14 519.57
  Q 977.55 634.52 916.44 732.22
  Z
  M 169.24 326.13
  Q 168.78 326.19 168.25 326.83
  A 1.83 1.76 -21.2 0 0 167.85 327.69
  L 167.08 332.33
  A 2.32 2.18 63.8 0 1 166.90 332.92
  Q 162.83 341.46 160.78 348.75
  Q 160.45 349.93 159.72 351.00
  A 1.64 1.32 75.7 0 0 159.56 351.35
  L 157.69 357.56
  L 148.38 379.91
  L 143.41 392.85
  A 0.66 0.65 -79.5 0 0 144.02 393.74
  Q 260.24 393.86 312.05 393.64
  Q 314.60 393.63 314.60 396.26
  Q 314.72 483.54 314.52 552.50
  C 314.50 562.58 315.21 571.21 318.50 580.32
  Q 323.50 595.19 331.19 606.06
  Q 348.00 629.85 376.25 640.49
  Q 391.28 646.58 403.01 647.26
  C 420.55 648.28 439.31 647.95 457.81 647.90
  A 1.80 1.79 -76.3 0 0 459.38 646.94
  C 463.78 638.59 468.50 631.91 473.26 623.16
  Q 477.99 614.44 479.26 611.97
  Q 479.47 611.54 479.29 610.78
  C 481.27 609.75 482.06 608.00 483.43 606.28
  A 9.92 9.71 -15.0 0 0 484.79 603.98
  Q 486.65 599.55 488.36 596.71
  Q 490.43 593.28 492.38 589.69
  Q 495.09 584.69 498.34 579.86
  L 506.29 567.10
  L 519.17 545.02
  A 0.74 0.73 18.6 0 0 518.62 543.92
  Q 515.94 543.59 513.75 543.57
  Q 500.70 543.44 431.77 543.64
  Q 429.80 543.64 429.80 541.26
  Q 429.79 460.17 429.69 394.95
  A 1.13 1.12 -90.0 0 1 430.81 393.82
  L 492.89 393.82
  A 2.22 2.21 74.2 0 1 494.78 394.88
  L 513.93 426.03
  L 561.22 504.24
  L 566.88 513.50
  Q 568.16 515.26 568.82 518.26
  L 564.39 526.72
  L 477.37 675.07
  L 392.43 820.32
  A 0.96 0.95 -55.8 0 0 392.66 821.55
  Q 394.25 822.80 395.58 823.55
  Q 408.09 830.51 424.04 838.45
  A 0.78 0.77 -61.3 0 0 425.05 838.15
  L 497.08 715.01
  Q 497.58 714.59 497.22 714.96
  L 504.07 713.96
  A 6.31 5.92 39.7 0 1 505.06 713.90
  L 540.51 714.97
  L 866.83 714.87
  A 1.58 1.57 -74.4 0 0 868.18 714.10
  L 889.52 677.72
  Q 892.46 674.61 893.77 672.23
  Q 900.21 660.53 907.41 648.03
  A 0.93 0.92 -67.5 0 0 906.85 646.67
  L 905.04 646.19
  Q 906.99 646.42 908.72 646.01
  A 1.59 1.58 6.4 0 0 909.79 645.16
  L 927.00 609.70
  A 0.48 0.48 0.0 0 0 926.62 609.01
  Q 925.05 608.86 920.50 608.82
  Q 885.76 608.50 791.35 608.58
  C 786.40 608.59 776.58 608.12 769.93 608.49
  C 764.16 608.82 758.64 608.31 752.02 608.49
  Q 741.37 608.78 730.49 608.60
  A 0.50 0.50 0.0 0 1 730.07 607.85
  L 745.50 581.31
  L 765.34 546.98
  L 785.69 512.17
  L 841.33 415.95
  A 0.72 0.71 25.5 0 0 840.96 414.92
  Q 840.06 414.58 838.75 414.53
  Q 827.46 414.07 804.00 414.20
  C 760.59 414.46 719.84 414.00 676.75 414.43
  Q 675.85 414.44 675.89 413.49
  C 679.76 405.44 685.36 396.66 688.99 390.46
  C 701.46 369.12 714.23 347.96 726.34 326.41
  L 746.97 291.37
  A 0.49 0.48 15.2 0 0 746.55 290.64
  Q 708.99 290.67 705.99 290.65
  Q 704.50 290.64 703.20 292.69
  Q 698.76 299.69 692.05 311.32
  Q 687.18 319.78 675.77 338.72
  C 671.77 345.36 668.03 352.52 664.20 358.29
  C 660.88 363.28 658.36 368.49 654.85 374.35
  Q 645.35 390.26 635.82 406.61
  Q 634.63 409.16 631.69 404.30
  Q 595.58 344.53 595.55 344.49
  Q 590.97 336.43 563.10 290.86
  A 1.55 1.50 -5.5 0 0 562.31 290.23
  Q 560.88 289.73 559.25 289.73
  Q 470.82 289.73 431.11 289.88
  A 1.25 1.25 0.0 0 1 429.86 288.63
  L 429.86 201.67
  A 0.47 0.47 0.0 0 0 429.39 201.20
  L 315.87 201.20
  A 1.16 1.16 0.0 0 0 314.71 202.36
  L 314.71 288.15
  A 1.59 1.59 0.0 0 1 313.12 289.74
  L 184.83 289.74
  A 2.48 2.46 -79.4 0 0 182.53 291.33
  L 169.24 326.13
  Z"
/>
<path fill="#061e22" d="
  M 695.48 66.98
  Q 703.40 66.64 710.85 68.71
  L 708.84 70.88
  A 1.42 1.41 -58.5 0 1 707.32 71.25
  L 695.48 66.98
  Z"
/>
<path fill="#061e22" d="
  M 856.36 165.74
  C 854.25 169.34 850.75 165.51 849.25 163.52
  Q 853.03 163.81 856.36 165.74
  Z"
/>
<path fill="#14233d" d="
  M 635.82 406.61
  Q 636.67 410.74 635.09 414.60
  A 0.31 0.30 75.4 0 0 635.61 414.91
  Q 638.14 411.63 638.90 410.18
  C 641.39 405.38 643.45 399.65 646.59 395.89
  C 648.87 393.15 650.73 389.73 653.54 386.74
  Q 657.92 382.09 660.61 378.68
  A 0.44 0.44 0.0 0 1 661.39 378.86
  L 663.02 386.44
  A 0.60 0.60 0.0 0 0 664.20 386.42
  Q 665.04 381.85 665.06 372.41
  C 665.08 366.18 666.05 359.64 671.57 356.10
  C 674.45 354.25 677.09 354.55 680.00 356.18
  A 0.80 0.80 0.0 0 0 681.19 355.42
  C 680.51 346.95 679.25 340.05 682.99 333.26
  Q 686.87 326.22 692.43 319.32
  A 0.92 0.92 0.0 0 1 694.07 319.84
  L 695.03 333.88
  A 0.26 0.26 0.0 0 0 695.31 334.12
  L 695.65 334.10
  A 0.50 0.50 0.0 0 0 696.12 333.62
  Q 696.33 328.86 696.59 320.31
  C 696.92 309.54 703.67 309.23 712.22 308.42
  A 0.92 0.91 88.2 0 0 713.04 307.54
  L 713.47 294.20
  A 0.68 0.68 0.0 0 1 714.14 293.54
  Q 718.18 293.42 724.36 293.92
  Q 729.48 294.32 729.54 298.69
  Q 729.69 310.41 726.56 322.35
  Q 726.21 323.70 726.34 326.41
  C 714.23 347.96 701.46 369.12 688.99 390.46
  C 685.36 396.66 679.76 405.44 675.89 413.49
  L 674.72 415.64
  A 0.69 0.68 19.4 0 0 675.20 416.64
  Q 679.04 417.36 679.36 417.38
  C 689.59 417.81 699.30 418.73 709.81 418.85
  C 731.75 419.10 751.66 418.12 771.92 418.62
  Q 777.38 418.75 813.96 419.02
  Q 819.14 419.06 824.52 418.69
  A 0.99 0.99 0.0 0 1 825.56 419.83
  Q 825.12 422.60 824.94 426.40
  C 824.70 431.37 825.05 436.64 822.89 441.47
  Q 820.61 446.57 816.93 451.38
  C 815.78 452.88 814.31 453.19 812.73 452.82
  A 2.06 2.06 0.0 0 0 810.24 454.35
  Q 808.72 460.81 807.36 464.36
  C 806.04 467.85 803.02 471.45 801.45 474.09
  Q 801.40 474.18 801.35 474.27
  L 795.94 485.76
  L 795.94 468.19
  A 0.55 0.55 0.0 0 0 794.88 467.97
  C 792.72 473.02 792.81 479.09 792.70 484.52
  Q 791.68 489.35 790.54 490.87
  C 788.57 493.51 786.19 496.26 785.05 499.13
  Q 782.39 505.87 785.69 512.17
  L 765.34 546.98
  C 763.30 542.35 763.74 536.96 764.83 532.29
  A 1.07 1.07 0.0 0 0 763.56 531.00
  L 762.76 531.17
  A 2.17 2.15 82.9 0 0 761.06 533.37
  C 761.28 538.77 761.61 546.59 758.45 550.49
  Q 754.66 555.15 751.70 558.48
  A 2.73 2.72 31.9 0 1 748.63 559.19
  L 747.85 558.87
  A 1.70 1.70 0.0 0 0 745.52 560.18
  Q 744.61 566.06 744.02 571.62
  Q 743.60 575.56 741.77 577.53
  Q 739.00 580.50 737.50 584.26
  A 0.64 0.63 87.1 0 0 738.38 585.06
  L 745.50 581.31
  L 730.07 607.85
  A 0.50 0.50 0.0 0 0 730.49 608.60
  Q 741.37 608.78 752.02 608.49
  C 758.64 608.31 764.16 608.82 769.93 608.49
  C 776.58 608.12 786.40 608.59 791.35 608.58
  Q 885.76 608.50 920.50 608.82
  Q 925.05 608.86 926.62 609.01
  A 0.48 0.48 0.0 0 1 927.00 609.70
  L 909.79 645.16
  A 1.59 1.58 6.4 0 1 908.72 646.01
  Q 906.99 646.42 905.04 646.19
  L 665.74 646.00
  A 0.63 0.63 0.0 0 1 665.20 645.05
  L 778.06 450.96
  A 0.75 0.75 0.0 0 0 777.41 449.84
  L 654.12 449.84
  A 0.62 0.60 -74.0 0 0 653.60 450.14
  L 497.22 714.96
  Q 497.58 714.59 497.08 715.01
  C 491.73 715.91 490.17 718.76 486.47 723.70
  Q 479.95 732.41 475.88 742.12
  A 14.63 14.45 75.4 0 1 474.00 745.37
  C 468.87 752.11 465.72 755.54 463.90 760.63
  C 460.75 769.44 457.57 776.07 451.79 783.49
  Q 446.35 790.48 443.23 799.72
  A 17.64 17.51 73.3 0 1 440.54 804.77
  Q 435.03 811.97 430.26 819.56
  Q 429.22 821.23 427.98 820.64
  A 1.72 1.59 -68.5 0 0 425.75 821.72
  Q 423.92 827.26 421.90 831.07
  A 1.97 1.97 0.0 0 1 419.41 831.97
  L 409.17 827.76
  A 0.90 0.89 11.3 0 1 408.61 826.93
  L 408.78 803.52
  A 0.22 0.17 64.5 0 1 408.80 803.43
  L 418.46 782.73
  A 2.88 2.50 80.8 0 1 418.80 782.18
  Q 427.55 771.06 434.80 758.00
  Q 436.26 755.36 437.68 750.69
  C 439.70 744.01 444.62 739.39 447.57 735.34
  Q 448.45 734.14 451.56 727.28
  Q 451.88 726.58 453.15 725.16
  A 0.20 0.20 0.0 0 1 453.50 725.28
  L 454.47 739.39
  A 0.57 0.57 0.0 0 0 455.16 739.91
  L 455.44 739.85
  A 0.89 0.88 85.4 0 0 456.14 739.02
  Q 456.45 730.18 456.38 723.00
  C 456.34 719.38 456.93 716.44 458.63 713.62
  Q 466.14 701.16 469.51 696.01
  A 0.21 0.21 0.0 0 1 469.90 696.11
  L 470.58 706.00
  A 0.84 0.83 88.9 0 0 471.39 706.78
  L 471.71 706.79
  A 0.30 0.30 0.0 0 0 472.02 706.49
  L 472.02 695.15
  A 7.09 6.95 -32.5 0 1 472.73 692.08
  C 475.67 686.11 477.64 682.17 477.37 675.07
  L 564.39 526.72
  C 566.53 532.55 566.19 540.18 565.87 546.04
  A 0.83 0.82 59.2 0 0 567.44 546.44
  Q 568.85 543.42 568.79 540.43
  C 568.66 534.05 568.48 528.47 570.82 522.07
  A 1.61 1.58 48.5 0 0 570.87 521.13
  Q 570.35 519.16 568.82 518.26
  Q 568.16 515.26 566.88 513.50
  Q 569.15 512.12 569.41 506.65
  Q 569.69 500.54 569.55 498.77
  Q 568.68 487.98 568.40 484.71
  A 0.51 0.51 0.0 0 0 567.89 484.24
  L 567.53 484.24
  A 0.49 0.49 0.0 0 0 567.04 484.73
  Q 567.07 491.57 566.13 498.09
  Q 565.63 501.53 563.36 503.66
  A 0.75 0.75 0.0 0 1 562.50 503.77
  Q 561.04 502.98 561.22 504.24
  L 513.93 426.03
  Q 515.78 425.62 517.13 424.79
  L 518.75 428.39
  A 1.06 1.06 0.0 0 0 520.77 428.00
  Q 521.22 417.80 519.49 406.34
  A 0.61 0.60 82.1 0 0 518.82 405.83
  L 518.77 405.83
  A 0.56 0.56 0.0 0 0 518.29 406.44
  Q 519.05 413.53 517.43 420.50
  Q 511.74 413.30 506.28 406.11
  C 497.96 395.16 489.86 388.82 475.83 386.89
  Q 457.66 384.40 440.06 387.37
  C 420.38 390.69 412.89 405.29 412.14 423.82
  C 411.15 448.07 412.44 468.21 413.98 498.44
  Q 414.07 500.26 414.31 512.88
  C 414.47 521.13 414.40 529.17 417.37 536.38
  C 421.65 546.75 435.28 547.29 444.74 547.06
  Q 472.06 546.38 495.80 547.82
  Q 499.11 548.02 502.94 548.75
  A 1.64 1.64 0.0 0 1 504.27 550.27
  C 504.62 557.08 504.11 562.00 506.29 567.10
  L 498.34 579.86
  L 393.17 579.82
  A 1.72 1.72 0.0 0 1 391.45 578.10
  L 391.45 357.36
  A 0.12 0.12 0.0 0 1 391.57 357.24
  L 513.25 357.24
  A 3.70 3.69 71.7 0 1 516.22 358.74
  Q 519.31 362.94 522.05 367.43
  Q 533.31 385.88 544.78 404.96
  C 550.14 413.87 557.17 424.01 562.58 434.17
  C 566.29 441.14 570.19 446.23 573.63 452.40
  Q 579.52 462.96 584.98 471.77
  Q 587.85 476.40 590.80 480.23
  A 0.32 0.32 0.0 0 0 591.31 480.23
  C 598.11 471.23 602.44 463.64 609.53 451.03
  Q 611.72 447.13 612.60 446.21
  A 0.60 0.60 0.0 0 0 612.66 445.44
  Q 609.82 441.41 608.98 440.02
  Q 604.20 432.02 579.51 391.26
  C 568.75 373.51 554.27 348.29 541.12 326.75
  Q 540.62 325.47 538.76 324.49
  Q 536.35 323.23 531.06 323.03
  Q 514.88 322.42 502.18 323.03
  Q 491.55 323.55 484.14 323.64
  Q 448.36 324.09 408.88 322.91
  C 403.26 322.74 395.56 323.76 393.98 316.73
  A 0.76 0.75 84.5 0 0 393.27 316.14
  Q 392.31 316.09 391.51 316.80
  L 391.37 238.11
  A 0.52 0.51 -90.0 0 0 390.86 237.59
  L 384.17 237.52
  L 391.14 232.94
  A 2.11 2.11 0.0 0 0 391.34 229.56
  Q 388.57 227.22 383.89 227.02
  Q 374.53 226.62 362.37 226.77
  C 353.71 226.88 346.82 226.84 345.74 236.41
  Q 345.01 242.81 345.00 250.02
  Q 344.99 264.29 345.17 302.08
  C 345.20 308.13 346.14 315.70 345.12 322.48
  A 1.31 1.30 -88.3 0 1 343.95 323.59
  C 337.98 324.17 331.52 323.50 325.23 323.53
  Q 261.36 323.85 241.43 323.61
  Q 220.77 323.36 210.19 323.39
  Q 209.32 323.39 203.37 323.21
  Q 193.89 322.93 186.07 326.32
  L 169.24 326.13
  L 182.53 291.33
  A 2.48 2.46 -79.4 0 1 184.83 289.74
  L 313.12 289.74
  A 1.59 1.59 0.0 0 0 314.71 288.15
  L 314.71 202.36
  A 1.16 1.16 0.0 0 1 315.87 201.20
  L 429.39 201.20
  A 0.47 0.47 0.0 0 1 429.86 201.67
  L 429.86 288.63
  A 1.25 1.25 0.0 0 0 431.11 289.88
  Q 470.82 289.73 559.25 289.73
  Q 560.88 289.73 562.31 290.23
  A 1.55 1.50 -5.5 0 1 563.10 290.86
  Q 590.97 336.43 595.55 344.49
  Q 595.58 344.53 631.69 404.30
  Q 634.63 409.16 635.82 406.61
  Z
  M 567.5361 346.7226
  A 7.49 1.09 -88.5 0 0 566.2504 354.1815
  A 7.49 1.09 -88.5 0 0 567.1439 361.6974
  A 7.49 1.09 -88.5 0 0 568.4296 354.2385
  A 7.49 1.09 -88.5 0 0 567.5361 346.7226
  Z
  M 599.15 398.12
  C 598.73 404.41 597.36 410.33 599.02 416.17
  A 0.68 0.67 -51.4 0 0 600.34 416.02
  Q 600.89 407.26 599.90 398.02
  A 0.18 0.18 0.0 0 0 599.72 397.86
  L 599.43 397.86
  A 0.28 0.28 0.0 0 0 599.15 398.12
  Z
  M 535.79 434.88
  L 534.13 434.97
  A 0.66 0.66 0.0 0 0 533.51 435.67
  L 533.99 444.28
  A 10.79 1.36 86.8 0 0 535.95 454.98
  L 536.21 454.97
  A 10.79 1.36 86.8 0 0 536.97 444.12
  L 536.48 435.50
  A 0.66 0.66 0.0 0 0 535.79 434.88
  Z
  M 570.60 465.96
  A 0.77 0.77 0.0 0 0 572.13 465.83
  L 572.10 456.25
  A 0.59 0.58 76.7 0 0 571.25 455.73
  L 570.11 456.29
  A 1.57 1.56 -18.0 0 0 569.26 457.94
  L 570.60 465.96
  Z
  M 741.91 520.37
  L 741.12 528.80
  A 1.63 1.62 13.9 0 0 742.12 530.45
  L 743.35 530.95
  A 0.61 0.61 0.0 0 0 744.19 530.34
  L 743.51 520.39
  A 0.80 0.80 0.0 0 0 741.91 520.37
  Z
  M 533.87 584.44
  L 534.52 594.05
  A 0.95 0.95 0.0 0 0 536.41 594.07
  L 537.12 586.50
  A 2.80 2.80 0.0 0 0 535.66 583.78
  L 535.24 583.55
  A 0.93 0.93 0.0 0 0 533.87 584.44
  Z"
/>
<path fill="#061e22" d="
  M 384.17 237.52
  L 354.68 237.72
  A 0.77 0.77 0.0 0 0 353.92 238.56
  Q 354.14 240.77 354.15 242.50
  Q 354.22 261.49 354.26 322.24
  C 354.26 323.44 354.64 324.71 354.78 325.92
  A 0.47 0.47 0.0 0 1 354.31 326.45
  L 186.07 326.32
  Q 193.89 322.93 203.37 323.21
  Q 209.32 323.39 210.19 323.39
  Q 220.77 323.36 241.43 323.61
  Q 261.36 323.85 325.23 323.53
  C 331.52 323.50 337.98 324.17 343.95 323.59
  A 1.31 1.30 -88.3 0 0 345.12 322.48
  C 346.14 315.70 345.20 308.13 345.17 302.08
  Q 344.99 264.29 345.00 250.02
  Q 345.01 242.81 345.74 236.41
  C 346.82 226.84 353.71 226.88 362.37 226.77
  Q 374.53 226.62 383.89 227.02
  Q 388.57 227.22 391.34 229.56
  A 2.11 2.11 0.0 0 1 391.14 232.94
  L 384.17 237.52
  Z"
/>
<path fill="#ddded4" d="
  M 384.17 237.52
  L 390.86 237.59
  A 0.52 0.51 -90.0 0 1 391.37 238.11
  L 391.51 316.80
  L 391.59 326.01
  A 0.72 0.72 0.0 0 0 392.31 326.72
  L 541.12 326.75
  C 554.27 348.29 568.75 373.51 579.51 391.26
  Q 604.20 432.02 608.98 440.02
  Q 609.82 441.41 612.66 445.44
  A 0.60 0.60 0.0 0 1 612.60 446.21
  Q 611.72 447.13 609.53 451.03
  C 602.44 463.64 598.11 471.23 591.31 480.23
  A 0.32 0.32 0.0 0 1 590.80 480.23
  Q 587.85 476.40 584.98 471.77
  Q 579.52 462.96 573.63 452.40
  C 570.19 446.23 566.29 441.14 562.58 434.17
  C 557.17 424.01 550.14 413.87 544.78 404.96
  Q 533.31 385.88 522.05 367.43
  Q 519.31 362.94 516.22 358.74
  A 3.70 3.69 71.7 0 0 513.25 357.24
  L 391.57 357.24
  A 0.12 0.12 0.0 0 0 391.45 357.36
  L 391.45 578.10
  A 1.72 1.72 0.0 0 0 393.17 579.82
  L 498.34 579.86
  Q 495.09 584.69 492.38 589.69
  Q 490.43 593.28 488.36 596.71
  Q 486.65 599.55 484.79 603.98
  A 9.92 9.71 -15.0 0 1 483.43 606.28
  C 482.06 608.00 481.27 609.75 479.29 610.78
  L 459.99 610.90
  Q 446.49 611.14 432.93 611.13
  C 418.70 611.11 407.53 611.30 395.55 607.70
  Q 379.04 602.75 369.28 591.06
  Q 362.18 582.54 358.02 571.85
  Q 354.09 561.77 354.10 549.99
  Q 354.25 383.20 354.17 368.64
  Q 354.14 363.16 354.05 358.07
  A 0.79 0.79 0.0 0 0 353.25 357.30
  L 157.69 357.56
  L 159.56 351.35
  A 1.64 1.32 75.7 0 1 159.72 351.00
  Q 160.45 349.93 160.78 348.75
  Q 162.83 341.46 166.90 332.92
  A 2.32 2.18 63.8 0 0 167.08 332.33
  L 167.85 327.69
  A 1.83 1.76 -21.2 0 1 168.25 326.83
  Q 168.78 326.19 169.24 326.13
  L 186.07 326.32
  L 354.31 326.45
  A 0.47 0.47 0.0 0 0 354.78 325.92
  C 354.64 324.71 354.26 323.44 354.26 322.24
  Q 354.22 261.49 354.15 242.50
  Q 354.14 240.77 353.92 238.56
  A 0.77 0.77 0.0 0 1 354.68 237.72
  L 384.17 237.52
  Z"
/>
<path fill="#061e22" d="
  M 726.34 326.41
  Q 726.21 323.70 726.56 322.35
  Q 729.69 310.41 729.54 298.69
  Q 729.48 294.32 724.36 293.92
  Q 718.18 293.42 714.14 293.54
  A 0.68 0.68 0.0 0 0 713.47 294.20
  L 713.04 307.54
  A 0.92 0.91 88.2 0 1 712.22 308.42
  C 703.67 309.23 696.92 309.54 696.59 320.31
  Q 696.33 328.86 696.12 333.62
  A 0.50 0.50 0.0 0 1 695.65 334.10
  L 695.31 334.12
  A 0.26 0.26 0.0 0 1 695.03 333.88
  L 694.07 319.84
  A 0.92 0.92 0.0 0 0 692.43 319.32
  Q 686.87 326.22 682.99 333.26
  C 679.25 340.05 680.51 346.95 681.19 355.42
  A 0.80 0.80 0.0 0 1 680.00 356.18
  C 677.09 354.55 674.45 354.25 671.57 356.10
  C 666.05 359.64 665.08 366.18 665.06 372.41
  Q 665.04 381.85 664.20 386.42
  A 0.60 0.60 0.0 0 1 663.02 386.44
  L 661.39 378.86
  A 0.44 0.44 0.0 0 0 660.61 378.68
  Q 657.92 382.09 653.54 386.74
  C 650.73 389.73 648.87 393.15 646.59 395.89
  C 643.45 399.65 641.39 405.38 638.90 410.18
  Q 638.14 411.63 635.61 414.91
  A 0.31 0.30 75.4 0 1 635.09 414.60
  Q 636.67 410.74 635.82 406.61
  Q 645.35 390.26 654.85 374.35
  C 658.36 368.49 660.88 363.28 664.20 358.29
  C 668.03 352.52 671.77 345.36 675.77 338.72
  Q 687.18 319.78 692.05 311.32
  Q 698.76 299.69 703.20 292.69
  Q 704.50 290.64 705.99 290.65
  Q 708.99 290.67 746.55 290.64
  A 0.49 0.48 15.2 0 1 746.97 291.37
  L 726.34 326.41
  Z"
/>
<path fill="#061e22" d="
  M 541.12 326.75
  L 392.31 326.72
  A 0.72 0.72 0.0 0 1 391.59 326.01
  L 391.51 316.80
  Q 392.31 316.09 393.27 316.14
  A 0.76 0.75 84.5 0 1 393.98 316.73
  C 395.56 323.76 403.26 322.74 408.88 322.91
  Q 448.36 324.09 484.14 323.64
  Q 491.55 323.55 502.18 323.03
  Q 514.88 322.42 531.06 323.03
  Q 536.35 323.23 538.76 324.49
  Q 540.62 325.47 541.12 326.75
  Z"
/>
<ellipse fill="#061e22" cx="0.00" cy="0.00" transform="translate(567.34,354.21) rotate(-88.5)" rx="7.49" ry="1.09"/>
<path fill="#14233d" d="
  M 459.99 610.90
  C 464.70 615.02 468.79 619.28 467.79 625.81
  Q 467.44 628.06 463.81 633.15
  Q 460.58 637.67 458.73 642.19
  A 0.81 0.80 -80.7 0 1 458.03 642.70
  C 451.09 643.10 442.72 642.53 435.01 642.73
  Q 414.07 643.30 392.01 642.20
  Q 386.00 641.90 380.05 640.23
  Q 378.82 639.89 376.25 640.49
  Q 348.00 629.85 331.19 606.06
  Q 323.50 595.19 318.50 580.32
  Q 320.25 576.02 319.38 571.35
  C 316.87 557.75 316.77 545.26 316.92 529.60
  Q 317.12 509.44 317.18 501.58
  C 317.30 485.58 316.40 470.10 316.84 453.64
  C 317.18 440.63 317.53 430.39 317.32 418.66
  Q 317.22 413.43 317.52 406.83
  C 317.67 403.52 317.39 398.82 317.40 396.52
  C 317.43 392.54 316.57 389.97 312.95 388.65
  Q 308.67 387.08 306.79 386.99
  Q 291.95 386.25 263.25 386.86
  Q 249.07 387.15 182.94 386.71
  Q 173.04 386.64 167.61 387.02
  Q 154.60 387.93 152.31 388.53
  Q 151.54 388.74 151.39 388.77
  A 0.54 0.53 75.4 0 1 150.75 388.39
  L 148.38 379.91
  L 157.69 357.56
  L 353.25 357.30
  A 0.79 0.79 0.0 0 1 354.05 358.07
  Q 354.14 363.16 354.17 368.64
  Q 354.25 383.20 354.10 549.99
  Q 354.09 561.77 358.02 571.85
  Q 362.18 582.54 369.28 591.06
  Q 379.04 602.75 395.55 607.70
  C 407.53 611.30 418.70 611.11 432.93 611.13
  Q 446.49 611.14 459.99 610.90
  Z
  M 342.63 595.51
  A 0.29 0.29 0.0 0 0 342.08 595.64
  L 342.08 610.36
  A 0.66 0.65 90.0 0 0 342.73 611.02
  L 343.14 611.02
  A 1.49 1.48 -86.7 0 0 344.61 609.70
  Q 345.53 601.35 342.63 595.51
  Z"
/>
<path fill="#061e22" d="
  M 148.38 379.91
  L 150.75 388.39
  A 0.54 0.53 75.4 0 0 151.39 388.77
  Q 151.54 388.74 152.31 388.53
  Q 154.60 387.93 167.61 387.02
  Q 173.04 386.64 182.94 386.71
  Q 249.07 387.15 263.25 386.86
  Q 291.95 386.25 306.79 386.99
  Q 308.67 387.08 312.95 388.65
  C 316.57 389.97 317.43 392.54 317.40 396.52
  C 317.39 398.82 317.67 403.52 317.52 406.83
  Q 317.22 413.43 317.32 418.66
  C 317.53 430.39 317.18 440.63 316.84 453.64
  C 316.40 470.10 317.30 485.58 317.18 501.58
  Q 317.12 509.44 316.92 529.60
  C 316.77 545.26 316.87 557.75 319.38 571.35
  Q 320.25 576.02 318.50 580.32
  C 315.21 571.21 314.50 562.58 314.52 552.50
  Q 314.72 483.54 314.60 396.26
  Q 314.60 393.63 312.05 393.64
  Q 260.24 393.86 144.02 393.74
  A 0.66 0.65 -79.5 0 1 143.41 392.85
  L 148.38 379.91
  Z"
/>
<path fill="#1b2131" d="
  M 517.43 420.50
  L 517.13 424.79
  Q 515.78 425.62 513.93 426.03
  L 494.78 394.88
  A 2.22 2.21 74.2 0 0 492.89 393.82
  L 430.81 393.82
  A 1.13 1.12 90.0 0 0 429.69 394.95
  Q 429.79 460.17 429.80 541.26
  Q 429.80 543.64 431.77 543.64
  Q 500.70 543.44 513.75 543.57
  Q 515.94 543.59 518.62 543.92
  A 0.74 0.73 18.6 0 1 519.17 545.02
  L 506.29 567.10
  C 504.11 562.00 504.62 557.08 504.27 550.27
  A 1.64 1.64 0.0 0 0 502.94 548.75
  Q 499.11 548.02 495.80 547.82
  Q 472.06 546.38 444.74 547.06
  C 435.28 547.29 421.65 546.75 417.37 536.38
  C 414.40 529.17 414.47 521.13 414.31 512.88
  Q 414.07 500.26 413.98 498.44
  C 412.44 468.21 411.15 448.07 412.14 423.82
  C 412.89 405.29 420.38 390.69 440.06 387.37
  Q 457.66 384.40 475.83 386.89
  C 489.86 388.82 497.96 395.16 506.28 406.11
  Q 511.74 413.30 517.43 420.50
  Z"
/>
<path fill="#061e22" d="
  M 599.15 398.12
  A 0.28 0.28 0.0 0 1 599.43 397.86
  L 599.72 397.86
  A 0.18 0.18 0.0 0 1 599.90 398.02
  Q 600.89 407.26 600.34 416.02
  A 0.68 0.67 -51.4 0 1 599.02 416.17
  C 597.36 410.33 598.73 404.41 599.15 398.12
  Z"
/>
<path fill="#061e22" d="
  M 517.13 424.79
  L 517.43 420.50
  Q 519.05 413.53 518.29 406.44
  A 0.56 0.56 0.0 0 1 518.77 405.83
  L 518.82 405.83
  A 0.61 0.60 82.1 0 1 519.49 406.34
  Q 521.22 417.80 520.77 428.00
  A 1.06 1.06 0.0 0 1 518.75 428.39
  L 517.13 424.79
  Z"
/>
<path fill="#0b2718" d="
  M 675.89 413.49
  Q 675.85 414.44 676.75 414.43
  C 719.84 414.00 760.59 414.46 804.00 414.20
  Q 827.46 414.07 838.75 414.53
  Q 840.06 414.58 840.96 414.92
  A 0.72 0.71 25.5 0 1 841.33 415.95
  L 785.69 512.17
  Q 782.39 505.87 785.05 499.13
  C 786.19 496.26 788.57 493.51 790.54 490.87
  Q 791.68 489.35 792.70 484.52
  Q 792.88 486.41 793.62 487.79
  A 0.61 0.61 0.0 0 0 794.67 487.82
  L 795.94 485.76
  L 801.35 474.27
  Q 801.40 474.18 801.45 474.09
  C 803.02 471.45 806.04 467.85 807.36 464.36
  Q 808.72 460.81 810.24 454.35
  A 2.06 2.06 0.0 0 1 812.73 452.82
  C 814.31 453.19 815.78 452.88 816.93 451.38
  Q 820.61 446.57 822.89 441.47
  C 825.05 436.64 824.70 431.37 824.94 426.40
  Q 825.12 422.60 825.56 419.83
  A 0.99 0.99 0.0 0 0 824.52 418.69
  Q 819.14 419.06 813.96 419.02
  Q 777.38 418.75 771.92 418.62
  C 751.66 418.12 731.75 419.10 709.81 418.85
  C 699.30 418.73 689.59 417.81 679.36 417.38
  Q 679.04 417.36 675.20 416.64
  A 0.69 0.68 19.4 0 1 674.72 415.64
  L 675.89 413.49
  Z"
/>
<path fill="#061e22" d="
  M 535.79 434.88
  A 0.66 0.66 0.0 0 1 536.48 435.50
  L 536.97 444.12
  A 10.79 1.36 86.8 0 1 536.21 454.97
  L 535.95 454.98
  A 10.79 1.36 86.8 0 1 533.99 444.28
  L 533.51 435.67
  A 0.66 0.66 0.0 0 1 534.13 434.97
  L 535.79 434.88
  Z"
/>
<path fill="#ddded4" d="
  M 905.04 646.19
  L 906.85 646.67
  A 0.93 0.92 -67.5 0 1 907.41 648.03
  Q 900.21 660.53 893.77 672.23
  Q 892.46 674.61 889.52 677.72
  L 618.93 677.71
  C 614.88 677.62 609.78 678.22 605.88 677.12
  A 0.57 0.57 0.0 0 1 605.54 676.28
  L 718.45 482.08
  A 1.31 1.30 15.1 0 0 717.32 480.12
  L 680.17 480.12
  A 2.65 2.65 0.0 0 0 677.89 481.42
  L 649.50 529.73
  L 643.92 538.62
  L 567.42 668.51
  Q 556.87 686.35 546.21 704.20
  Q 544.20 707.55 540.51 714.97
  L 505.06 713.90
  A 6.31 5.92 39.7 0 0 504.07 713.96
  L 497.22 714.96
  L 653.60 450.14
  A 0.62 0.60 -74.0 0 1 654.12 449.84
  L 777.41 449.84
  A 0.75 0.75 0.0 0 1 778.06 450.96
  L 665.20 645.05
  A 0.63 0.63 0.0 0 0 665.74 646.00
  L 905.04 646.19
  Z"
/>
<path fill="#061e22" d="
  M 570.60 465.96
  L 569.26 457.94
  A 1.57 1.56 -18.0 0 1 570.11 456.29
  L 571.25 455.73
  A 0.59 0.58 76.7 0 1 572.10 456.25
  L 572.13 465.83
  A 0.77 0.77 0.0 0 1 570.60 465.96
  Z"
/>
<path fill="#061e22" d="
  M 795.94 485.76
  L 794.67 487.82
  A 0.61 0.61 0.0 0 1 793.62 487.79
  Q 792.88 486.41 792.70 484.52
  C 792.81 479.09 792.72 473.02 794.88 467.97
  A 0.55 0.55 0.0 0 1 795.94 468.19
  L 795.94 485.76
  Z"
/>
<path fill="#14233d" d="
  M 618.93 677.71
  Q 622.25 679.24 627.14 679.27
  Q 665.45 679.43 689.00 679.31
  Q 720.44 679.16 752.00 679.17
  Q 830.22 679.19 833.48 679.26
  C 852.55 679.63 872.40 679.14 884.72 679.18
  A 0.35 0.35 0.0 0 1 885.03 679.69
  Q 883.93 681.96 883.88 682.04
  Q 879.78 687.85 876.58 692.60
  C 873.75 696.79 871.77 701.59 869.38 704.97
  A 4.01 4.01 0.0 0 1 866.55 706.64
  Q 863.25 707.01 857.73 707.00
  Q 739.36 706.98 696.13 706.97
  Q 657.19 706.96 640.25 706.66
  C 620.84 706.32 605.51 707.30 586.23 706.83
  Q 570.85 706.46 553.35 707.16
  A 1.74 1.74 0.0 0 1 551.56 705.14
  Q 553.44 693.56 564.95 690.60
  A 1.96 1.92 -37.8 0 1 566.32 690.76
  Q 567.58 691.41 568.65 690.61
  A 1.31 1.29 -19.4 0 0 569.16 689.56
  Q 569.01 678.98 567.42 668.51
  L 643.92 538.62
  Q 647.19 549.08 645.65 559.92
  A 0.67 0.67 0.0 0 0 646.92 560.29
  C 649.61 554.30 649.05 548.29 648.46 541.52
  A 22.11 22.01 -43.8 0 1 648.57 536.61
  L 649.50 529.73
  L 677.89 481.42
  A 2.65 2.65 0.0 0 1 680.17 480.12
  L 717.32 480.12
  A 1.31 1.30 15.1 0 1 718.45 482.08
  L 605.54 676.28
  A 0.57 0.57 0.0 0 0 605.88 677.12
  C 609.78 678.22 614.88 677.62 618.93 677.71
  Z
  M 614.0516 598.1056
  A 6.50 1.62 -97.5 0 0 613.2939 604.7615
  A 6.50 1.62 -97.5 0 0 615.7484 610.9944
  A 6.50 1.62 -97.5 0 0 616.5061 604.3385
  A 6.50 1.62 -97.5 0 0 614.0516 598.1056
  Z"
/>
<path fill="#061e22" d="
  M 566.88 513.50
  L 561.22 504.24
  Q 561.04 502.98 562.50 503.77
  A 0.75 0.75 0.0 0 0 563.36 503.66
  Q 565.63 501.53 566.13 498.09
  Q 567.07 491.57 567.04 484.73
  A 0.49 0.49 0.0 0 1 567.53 484.24
  L 567.89 484.24
  A 0.51 0.51 0.0 0 1 568.40 484.71
  Q 568.68 487.98 569.55 498.77
  Q 569.69 500.54 569.41 506.65
  Q 569.15 512.12 566.88 513.50
  Z"
/>
<path fill="#061e22" d="
  M 564.39 526.72
  L 568.82 518.26
  Q 570.35 519.16 570.87 521.13
  A 1.61 1.58 48.5 0 1 570.82 522.07
  C 568.48 528.47 568.66 534.05 568.79 540.43
  Q 568.85 543.42 567.44 546.44
  A 0.83 0.82 59.2 0 1 565.87 546.04
  C 566.19 540.18 566.53 532.55 564.39 526.72
  Z"
/>
<path fill="#061e22" d="
  M 741.91 520.37
  A 0.80 0.80 0.0 0 1 743.51 520.39
  L 744.19 530.34
  A 0.61 0.61 0.0 0 1 743.35 530.95
  L 742.12 530.45
  A 1.63 1.62 13.9 0 1 741.12 528.80
  L 741.91 520.37
  Z"
/>
<path fill="#061e22" d="
  M 649.50 529.73
  L 648.57 536.61
  A 22.11 22.01 -43.8 0 0 648.46 541.52
  C 649.05 548.29 649.61 554.30 646.92 560.29
  A 0.67 0.67 0.0 0 1 645.65 559.92
  Q 647.19 549.08 643.92 538.62
  L 649.50 529.73
  Z"
/>
<path fill="#061e22" d="
  M 765.34 546.98
  L 745.50 581.31
  L 738.38 585.06
  A 0.64 0.63 87.1 0 1 737.50 584.26
  Q 739.00 580.50 741.77 577.53
  Q 743.60 575.56 744.02 571.62
  Q 744.61 566.06 745.52 560.18
  A 1.70 1.70 0.0 0 1 747.85 558.87
  L 748.63 559.19
  A 2.73 2.72 31.9 0 0 751.70 558.48
  Q 754.66 555.15 758.45 550.49
  C 761.61 546.59 761.28 538.77 761.06 533.37
  A 2.17 2.15 82.9 0 1 762.76 531.17
  L 763.56 531.00
  A 1.07 1.07 0.0 0 1 764.83 532.29
  C 763.74 536.96 763.30 542.35 765.34 546.98
  Z"
/>
<path fill="#061e22" d="
  M 533.87 584.44
  A 0.93 0.93 0.0 0 1 535.24 583.55
  L 535.66 583.78
  A 2.80 2.80 0.0 0 1 537.12 586.50
  L 536.41 594.07
  A 0.95 0.95 0.0 0 1 534.52 594.05
  L 533.87 584.44
  Z"
/>
<path fill="#061e22" d="
  M 342.63 595.51
  Q 345.53 601.35 344.61 609.70
  A 1.49 1.48 -86.7 0 1 343.14 611.02
  L 342.73 611.02
  A 0.66 0.65 90.0 0 1 342.08 610.36
  L 342.08 595.64
  A 0.29 0.29 0.0 0 1 342.63 595.51
  Z"
/>
<ellipse fill="#061e22" cx="0.00" cy="0.00" transform="translate(614.90,604.55) rotate(-97.5)" rx="6.50" ry="1.62"/>
<path fill="#061e22" d="
  M 479.29 610.78
  Q 479.47 611.54 479.26 611.97
  Q 477.99 614.44 473.26 623.16
  C 468.50 631.91 463.78 638.59 459.38 646.94
  A 1.80 1.79 -76.3 0 1 457.81 647.90
  C 439.31 647.95 420.55 648.28 403.01 647.26
  Q 391.28 646.58 376.25 640.49
  Q 378.82 639.89 380.05 640.23
  Q 386.00 641.90 392.01 642.20
  Q 414.07 643.30 435.01 642.73
  C 442.72 642.53 451.09 643.10 458.03 642.70
  A 0.81 0.80 -80.7 0 0 458.73 642.19
  Q 460.58 637.67 463.81 633.15
  Q 467.44 628.06 467.79 625.81
  C 468.79 619.28 464.70 615.02 459.99 610.90
  L 479.29 610.78
  Z"
/>
<path fill="#061e22" d="
  M 567.42 668.51
  Q 569.01 678.98 569.16 689.56
  A 1.31 1.29 -19.4 0 1 568.65 690.61
  Q 567.58 691.41 566.32 690.76
  A 1.96 1.92 -37.8 0 0 564.95 690.60
  Q 553.44 693.56 551.56 705.14
  A 1.74 1.74 0.0 0 0 553.35 707.16
  Q 570.85 706.46 586.23 706.83
  C 605.51 707.30 620.84 706.32 640.25 706.66
  Q 657.19 706.96 696.13 706.97
  Q 739.36 706.98 857.73 707.00
  Q 863.25 707.01 866.55 706.64
  A 4.01 4.01 0.0 0 0 869.38 704.97
  C 871.77 701.59 873.75 696.79 876.58 692.60
  Q 879.78 687.85 883.88 682.04
  Q 883.93 681.96 885.03 679.69
  A 0.35 0.35 0.0 0 0 884.72 679.18
  C 872.40 679.14 852.55 679.63 833.48 679.26
  Q 830.22 679.19 752.00 679.17
  Q 720.44 679.16 689.00 679.31
  Q 665.45 679.43 627.14 679.27
  Q 622.25 679.24 618.93 677.71
  L 889.52 677.72
  L 868.18 714.10
  A 1.58 1.57 -74.4 0 1 866.83 714.87
  L 540.51 714.97
  Q 544.20 707.55 546.21 704.20
  Q 556.87 686.35 567.42 668.51
  Z"
/>
<path fill="#061e22" d="
  M 497.08 715.01
  L 425.05 838.15
  A 0.78 0.77 -61.3 0 1 424.04 838.45
  Q 408.09 830.51 395.58 823.55
  Q 394.25 822.80 392.66 821.55
  A 0.96 0.95 -55.8 0 1 392.43 820.32
  L 477.37 675.07
  C 477.64 682.17 475.67 686.11 472.73 692.08
  A 7.09 6.95 -32.5 0 0 472.02 695.15
  L 472.02 706.49
  A 0.30 0.30 0.0 0 1 471.71 706.79
  L 471.39 706.78
  A 0.84 0.83 88.9 0 1 470.58 706.00
  L 469.90 696.11
  A 0.21 0.21 0.0 0 0 469.51 696.01
  Q 466.14 701.16 458.63 713.62
  C 456.93 716.44 456.34 719.38 456.38 723.00
  Q 456.45 730.18 456.14 739.02
  A 0.89 0.88 85.4 0 1 455.44 739.85
  L 455.16 739.91
  A 0.57 0.57 0.0 0 1 454.47 739.39
  L 453.50 725.28
  A 0.20 0.20 0.0 0 0 453.15 725.16
  Q 451.88 726.58 451.56 727.28
  Q 448.45 734.14 447.57 735.34
  C 444.62 739.39 439.70 744.01 437.68 750.69
  Q 436.26 755.36 434.80 758.00
  Q 427.55 771.06 418.80 782.18
  A 2.88 2.50 80.8 0 0 418.46 782.73
  L 408.80 803.43
  A 0.22 0.17 64.5 0 0 408.78 803.52
  L 408.61 826.93
  A 0.90 0.89 11.3 0 0 409.17 827.76
  L 419.41 831.97
  A 1.97 1.97 0.0 0 0 421.90 831.07
  Q 423.92 827.26 425.75 821.72
  A 1.72 1.59 -68.5 0 1 427.98 820.64
  Q 429.22 821.23 430.26 819.56
  Q 435.03 811.97 440.54 804.77
  A 17.64 17.51 73.3 0 0 443.23 799.72
  Q 446.35 790.48 451.79 783.49
  C 457.57 776.07 460.75 769.44 463.90 760.63
  C 465.72 755.54 468.87 752.11 474.00 745.37
  A 14.63 14.45 75.4 0 0 475.88 742.12
  Q 479.95 732.41 486.47 723.70
  C 490.17 718.76 491.73 715.91 497.08 715.01
  Z"
/>
<path fill="#8d9098" d="
  M 898.51 992.00
  L 879.55 992.00
  Q 866.10 971.46 842.45 965.02
  A 1.78 1.78 0.0 0 1 841.52 964.39
  Q 840.53 963.08 841.31 961.89
  A 1.80 1.79 8.0 0 1 842.31 961.14
  Q 876.98 950.96 887.10 916.30
  A 1.69 1.60 81.3 0 1 887.69 915.45
  Q 889.00 914.47 890.25 915.41
  A 1.80 1.76 -80.5 0 1 890.89 916.33
  Q 901.08 951.05 935.81 961.16
  A 1.54 1.54 0.0 0 1 936.78 961.98
  Q 937.29 963.06 936.58 964.27
  A 1.58 1.56 7.3 0 1 935.65 964.98
  Q 911.91 971.39 898.51 992.00
  Z"
/>
</svg>
