<?xml version="1.0" encoding="UTF-8" standalone="no"?>
<svg xmlns="http://www.w3.org/2000/svg" version="1.1" viewBox="70 30 930 940">
<!-- 緑の円（背景） -->
<path fill="#8af683" d="
  M 916.44 732.22
  Q 905.80 749.16 893.90 765.24
  C 885.63 775.47 877.08 786.68 868.62 795.56
  C 862.11 802.39 854.76 810.81 847.16 818.18
  Q 819.78 844.72 788.79 866.35
  Q 781.66 871.33 774.12 875.94
  C 767.77 879.82 761.09 884.16 754.10 888.07
  Q 724.65 904.59 694.23 916.44
  Q 677.12 923.11 654.16 929.65
  C 581.11 950.46 504.35 951.54 430.38 933.84
  Q 424.21 932.37 410.78 928.56
  C 375.27 918.50 340.80 903.60 309.82 885.92
  Q 297.56 878.93 280.79 867.69
  Q 257.60 852.16 241.30 837.74
  Q 235.46 832.56 228.44 826.09
  C 207.23 806.53 187.02 784.70 170.12 760.98
  Q 162.62 750.46 152.14 734.51
  Q 146.93 726.59 136.59 707.51
  Q 103.22 646.00 89.35 575.38
  Q 84.13 548.75 82.65 520.76
  C 81.49 498.69 81.83 475.46 84.30 452.47
  C 89.16 407.03 100.06 362.68 118.02 320.98
  Q 136.48 278.11 160.42 242.65
  Q 185.25 205.88 216.72 174.98
  C 229.66 162.28 244.81 148.40 259.96 137.01
  Q 292.65 112.45 320.77 97.57
  Q 352.64 80.71 383.09 69.38
  Q 404.68 61.35 426.96 56.23
  Q 433.36 54.76 449.76 51.40
  C 486.94 43.77 525.42 41.42 562.49 43.98
  Q 582.93 45.39 608.01 49.33
  C 616.89 50.72 626.50 53.09 636.31 55.21
  Q 660.93 60.54 688.41 70.86
  Q 744.01 91.72 792.03 125.97
  Q 819.96 145.90 846.41 171.58
  Q 889.92 213.84 920.70 265.51
  C 925.89 274.22 932.96 287.35 936.56 294.46
  Q 940.81 302.87 948.39 320.34
  C 956.11 338.12 961.85 355.40 967.48 374.03
  Q 970.73 384.78 972.59 393.10
  C 978.56 419.78 982.17 447.36 983.97 474.26
  C 984.92 488.54 984.99 504.71 984.14 519.57
  Q 977.55 634.52 916.44 732.22
  Z
  M 169.24 326.13
  Q 168.78 326.19 168.25 326.83
  A 1.83 1.76 -21.2 0 0 167.85 327.69
  L 167.08 332.33
  A 2.32 2.18 63.8 0 1 166.90 332.92
  Q 162.83 341.46 160.78 348.75
  Q 160.45 349.93 159.72 351.00
  A 1.64 1.32 75.7 0 0 159.56 351.35
  L 157.69 357.56
  L 148.38 379.91
  L 143.41 392.85
  A 0.66 0.65 -79.5 0 0 144.02 393.74
  Q 260.24 393.86 312.05 393.64
  Q 314.60 393.63 314.60 396.26
  Q 314.72 483.54 314.52 552.50
  C 314.50 562.58 315.21 571.21 318.50 580.32
  Q 323.50 595.19 331.19 606.06
  Q 348.00 629.85 376.25 640.49
  Q 391.28 646.58 403.01 647.26
  C 420.55 648.28 439.31 647.95 457.81 647.90
  A 1.80 1.79 -76.3 0 0 459.38 646.94
  C 463.78 638.59 468.50 631.91 473.26 623.16
  Q 477.99 614.44 479.26 611.97
  Q 479.47 611.54 479.29 610.78
  C 481.27 609.75 482.06 608.00 483.43 606.28
  A 9.92 9.71 -15.0 0 0 484.79 603.98
  Q 486.65 599.55 488.36 596.71
  Q 490.43 593.28 492.38 589.69
  Q 495.09 584.69 498.34 579.86
  L 506.29 567.10
  L 519.17 545.02
  A 0.74 0.73 18.6 0 0 518.62 543.92
  Q 515.94 543.59 513.75 543.57
  Q 500.70 543.44 431.77 543.64
  Q 429.80 543.64 429.80 541.26
  Q 429.79 460.17 429.69 394.95
  A 1.13 1.12 -90.0 0 1 430.81 393.82
  L 492.89 393.82
  A 2.22 2.21 74.2 0 1 494.78 394.88
  L 513.93 426.03
  L 561.22 504.24
  L 566.88 513.50
  Q 568.16 515.26 568.82 518.26
  L 564.39 526.72
  L 477.37 675.07
  L 392.43 820.32
  A 0.96 0.95 -55.8 0 0 392.66 821.55
  Q 394.25 822.80 395.58 823.55
  Q 408.09 830.51 424.04 838.45
  A 0.78 0.77 -61.3 0 0 425.05 838.15
  L 497.08 715.01
  Q 497.58 714.59 497.22 714.96
  L 504.07 713.96
  A 6.31 5.92 39.7 0 1 505.06 713.90
  L 540.51 714.97
  L 866.83 714.87
  A 1.58 1.57 -74.4 0 0 868.18 714.10
  L 889.52 677.72
  Q 892.46 674.61 893.77 672.23
  Q 900.21 660.53 907.41 648.03
  A 0.93 0.92 -67.5 0 0 906.85 646.67
  L 905.04 646.19
  Q 906.99 646.42 908.72 646.01
  A 1.59 1.58 6.4 0 0 909.79 645.16
  L 927.00 609.70
  A 0.48 0.48 0.0 0 0 926.62 609.01
  Q 925.05 608.86 920.50 608.82
  Q 885.76 608.50 791.35 608.58
  C 786.40 608.59 776.58 608.12 769.93 608.49
  C 764.16 608.82 758.64 608.31 752.02 608.49
  Q 741.37 608.78 730.49 608.60
  A 0.50 0.50 0.0 0 1 730.07 607.85
  L 745.50 581.31
  L 765.34 546.98
  L 785.69 512.17
  L 841.33 415.95
  A 0.72 0.71 25.5 0 0 840.96 414.92
  Q 840.06 414.58 838.75 414.53
  Q 827.46 414.07 804.00 414.20
  C 760.59 414.46 719.84 414.00 676.75 414.43
  Q 675.85 414.44 675.89 413.49
  C 679.76 405.44 685.36 396.66 688.99 390.46
  C 701.46 369.12 714.23 347.96 726.34 326.41
  L 746.97 291.37
  A 0.49 0.48 15.2 0 0 746.55 290.64
  Q 708.99 290.67 705.99 290.65
  Q 704.50 290.64 703.20 292.69
  Q 698.76 299.69 692.05 311.32
  Q 687.18 319.78 675.77 338.72
  C 671.77 345.36 668.03 352.52 664.20 358.29
  C 660.88 363.28 658.36 368.49 654.85 374.35
  Q 645.35 390.26 635.82 406.61
  Q 634.63 409.16 631.69 404.30
  Q 595.58 344.53 595.55 344.49
  Q 590.97 336.43 563.10 290.86
  A 1.55 1.50 -5.5 0 0 562.31 290.23
  Q 560.88 289.73 559.25 289.73
  Q 470.82 289.73 431.11 289.88
  A 1.25 1.25 0.0 0 1 429.86 288.63
  L 429.86 201.67
  A 0.47 0.47 0.0 0 0 429.39 201.20
  L 315.87 201.20
  A 1.16 1.16 0.0 0 0 314.71 202.36
  L 314.71 288.15
  A 1.59 1.59 0.0 0 1 313.12 289.74
  L 184.83 289.74
  A 2.48 2.46 -79.4 0 0 182.53 291.33
  L 169.24 326.13
  Z"
/>
<!-- tyzロゴの白いライン -->
<path fill="#ddded4" d="
  M 905.04 646.19
  L 906.85 646.67
  A 0.93 0.92 -67.5 0 1 907.41 648.03
  Q 900.21 660.53 893.77 672.23
  Q 892.46 674.61 889.52 677.72
  L 618.93 677.71
  C 614.88 677.62 609.78 678.22 605.88 677.12
  A 0.57 0.57 0.0 0 1 605.54 676.28
  L 718.45 482.08
  A 1.31 1.30 15.1 0 0 717.32 480.12
  L 680.17 480.12
  A 2.65 2.65 0.0 0 0 677.89 481.42
  L 649.50 529.73
  L 643.92 538.62
  L 567.42 668.51
  Q 556.87 686.35 546.21 704.20
  Q 544.20 707.55 540.51 714.97
  L 505.06 713.90
  A 6.31 5.92 39.7 0 0 504.07 713.96
  L 497.22 714.96
  L 653.60 450.14
  A 0.62 0.60 -74.0 0 1 654.12 449.84
  L 777.41 449.84
  A 0.75 0.75 0.0 0 1 778.06 450.96
  L 665.20 645.05
  A 0.63 0.63 0.0 0 0 665.74 646.00
  L 905.04 646.19
  Z"
/>
<!-- tyzロゴの白いT部分 -->
<path fill="#ddded4" d="
  M 384.17 237.52
  L 390.86 237.59
  A 0.52 0.51 -90.0 0 1 391.37 238.11
  L 391.51 316.80
  L 391.59 326.01
  A 0.72 0.72 0.0 0 0 392.31 326.72
  L 541.12 326.75
  C 554.27 348.29 568.75 373.51 579.51 391.26
  Q 604.20 432.02 608.98 440.02
  Q 609.82 441.41 612.66 445.44
  A 0.60 0.60 0.0 0 1 612.60 446.21
  Q 611.72 447.13 609.53 451.03
  C 602.44 463.64 598.11 471.23 591.31 480.23
  A 0.32 0.32 0.0 0 1 590.80 480.23
  Q 587.85 476.40 584.98 471.77
  Q 579.52 462.96 573.63 452.40
  C 570.19 446.23 566.29 441.14 562.58 434.17
  C 557.17 424.01 550.14 413.87 544.78 404.96
  Q 533.31 385.88 522.05 367.43
  Q 519.31 362.94 516.22 358.74
  A 3.70 3.69 71.7 0 0 513.25 357.24
  L 391.57 357.24
  A 0.12 0.12 0.0 0 0 391.45 357.36
  L 391.45 578.10
  A 1.72 1.72 0.0 0 0 393.17 579.82
  L 498.34 579.86
  Q 495.09 584.69 492.38 589.69
  Q 490.43 593.28 488.36 596.71
  Q 486.65 599.55 484.79 603.98
  A 9.92 9.71 -15.0 0 1 483.43 606.28
  C 482.06 608.00 481.27 609.75 479.29 610.78
  L 459.99 610.90
  Q 446.49 611.14 432.93 611.13
  C 418.70 611.11 407.53 611.30 395.55 607.70
  Q 379.04 602.75 369.28 591.06
  Q 362.18 582.54 358.02 571.85
  Q 354.09 561.77 354.10 549.99
  Q 354.25 383.20 354.17 368.64
  Q 354.14 363.16 354.05 358.07
  A 0.79 0.79 0.0 0 0 353.25 357.30
  L 157.69 357.56
  L 159.56 351.35
  A 1.64 1.32 75.7 0 1 159.72 351.00
  Q 160.45 349.93 160.78 348.75
  Q 162.83 341.46 166.90 332.92
  A 2.32 2.18 63.8 0 0 167.08 332.33
  L 167.85 327.69
  A 1.83 1.76 -21.2 0 1 168.25 326.83
  Q 168.78 326.19 169.24 326.13
  L 186.07 326.32
  L 354.31 326.45
  A 0.47 0.47 0.0 0 0 354.78 325.92
  C 354.64 324.71 354.26 323.44 354.26 322.24
  Q 354.22 261.49 354.15 242.50
  Q 354.14 240.77 353.92 238.56
  A 0.77 0.77 0.0 0 1 354.68 237.72
  L 384.17 237.52
  Z"
/>
</svg>
